<svg
  version="1.0"
  width="256.000000pt"
  height="256.000000pt"
  viewBox="0 0 256.000000 256.000000"
  preserveAspectRatio="xMidYMid meet"
  xmlns="http://www.w3.org/2000/svg"
>
  <defs></defs>
  <g transform="matrix(1, 0, 0, 1, 3.000003, 3.000003)">
    <g>
      <g fill="#000000" stroke="none"></g>
      <g transform="matrix(3.107626, 0, 0, 3.107626, -30.073967, -32.279362)">
        <g>
          <path
            xmlns="http://www.w3.org/2000/svg"
            d="M 87.027 54.271 C 86.664 52.769 85.737 51.498 84.418 50.692 C 83.09900000000002 49.886 81.545 49.641 80.042 50.005 L 78.313 50.423 L 78.173 49.842 C 78.514 49.574 78.81 49.257999999999996 79.027 48.887 C 79.524 48.037 79.639 47.006 79.351 45.983000000000004 C 78.965 44.612 77.839 43.597 76.483 43.32000000000001 C 76.125 42.36600000000001 75.44800000000001 41.577000000000005 74.549 41.074000000000005 C 73.54100000000001 40.50900000000001 72.373 40.36900000000001 71.25800000000001 40.684000000000005 C 70.24700000000001 40.969 69.37800000000001 41.620000000000005 68.81000000000002 42.489000000000004 C 68.32800000000002 42.413000000000004 67.83500000000002 42.43300000000001 67.35100000000001 42.550000000000004 C 66.87100000000001 42.666000000000004 66.421 42.87500000000001 66.02700000000002 43.162000000000006 C 64.83500000000002 42.217000000000006 63.222000000000016 41.93200000000001 61.735000000000014 42.46600000000001 C 60.686000000000014 42.84400000000001 59.820000000000014 43.61900000000001 59.30600000000001 44.61200000000001 C 58.99900000000001 44.60000000000001 58.68800000000001 44.644000000000005 58.38800000000001 44.71600000000001 C 57.908000000000015 44.83200000000001 57.45800000000001 45.04200000000001 57.06300000000001 45.32800000000001 C 55.77700000000001 44.30700000000001 54.00400000000001 44.06400000000001 52.43700000000001 44.76700000000001 C 50.93800000000001 45.43900000000001 49.91800000000001 46.94600000000001 49.83800000000001 48.60500000000001 C 49.81600000000001 49.067000000000014 49.86400000000001 49.52100000000001 49.97800000000001 49.95700000000001 C 49.76700000000001 50.03500000000001 49.56200000000001 50.13400000000001 49.36600000000001 50.254000000000005 C 48.31000000000001 50.89900000000001 47.665000000000006 52.106 47.721000000000004 53.328 C 47.769000000000005 54.375 48.271 55.330000000000005 49.098000000000006 55.95 C 49.53900000000001 56.281000000000006 50.044000000000004 56.488 50.571000000000005 56.581 L 57.309000000000005 84.495 L 57.062000000000005 84.555 C 56.804 84.617 56.58200000000001 84.78 56.443000000000005 85.00500000000001 C 56.30500000000001 85.23200000000001 56.26200000000001 85.504 56.324000000000005 85.76200000000001 L 56.96000000000001 88.39300000000001 C 57.29700000000001 89.78800000000001 58.54800000000001 90.72600000000001 59.92400000000001 90.72600000000001 C 60.160000000000004 90.72600000000001 60.400000000000006 90.69900000000001 60.64000000000001 90.64000000000001 L 84.76700000000001 84.81000000000002 C 85.55900000000001 84.62000000000002 86.22800000000001 84.13100000000001 86.653 83.43600000000002 C 87.07700000000001 82.74100000000003 87.20500000000001 81.92200000000003 87.01400000000001 81.13000000000002 L 86.37800000000001 78.49800000000002 C 86.24800000000002 77.96200000000002 85.70900000000002 77.63200000000002 85.17100000000002 77.76200000000001 L 84.94100000000002 77.81800000000001 L 83.97400000000002 73.82000000000001 L 85.69600000000001 73.403 C 88.79800000000002 72.65400000000001 90.71200000000002 69.52000000000001 89.96200000000002 66.418 L 87.027 54.271 Z"
            style="fill: rgb(0, 0, 0); fill-opacity: 0.9"
          ></path>
          <path
            xmlns="http://www.w3.org/2000/svg"
            d="M 85.226 71.46 L 83.503 71.877 L 78.782 52.36699999999999 L 80.50999999999999 51.94999999999999 C 81.49199999999999 51.71399999999999 82.50999999999999 51.871999999999986 83.374 52.39899999999999 C 84.238 52.92599999999999 84.844 53.75799999999999 85.082 54.74299999999999 L 88.017 66.88899999999998 C 88.508 68.918 87.256 70.969 85.226 71.46 Z"
            style="fill: rgb(255, 255, 255)"
          ></path>
          <path
            xmlns="http://www.w3.org/2000/svg"
            d="M 59.252 84.025 L 53.301 59.36900000000001 C 54.365 59.129000000000005 55.315000000000005 58.992000000000004 56.217 58.946000000000005 L 56.958 62.013000000000005 C 57.363 63.685 58.863 64.81 60.510999999999996 64.81 C 60.794999999999995 64.81 61.083 64.776 61.37 64.706 C 62.318999999999996 64.477 63.122 63.892 63.631 63.059000000000005 C 64.14 62.226000000000006 64.294 61.245000000000005 64.065 60.29600000000001 L 63.763999999999996 59.04900000000001 C 64.46799999999999 58.952000000000005 65.196 58.82600000000001 65.99 58.63300000000001 C 69.29299999999999 57.83500000000001 70.824 56.84100000000001 72.306 55.87800000000001 C 73.545 55.074000000000005 74.728 54.309000000000005 77.036 53.64600000000001 L 82.998 78.286 L 59.252 84.025 Z"
            style="fill: rgb(247, 181, 0)"
          ></path>
          <path
            xmlns="http://www.w3.org/2000/svg"
            d="M 84.945 82.394 C 84.79899999999999 82.632 84.56899999999999 82.80000000000001 84.297 82.867 L 60.17 88.697 C 59.604 88.831 59.04 88.485 58.904 87.924 L 58.503 86.265 L 84.669 79.94200000000001 L 85.07 81.6 C 85.136 81.872 85.092 82.154 84.945 82.394 Z"
            style="fill: rgb(255, 255, 255)"
          ></path>
          <path
            xmlns="http://www.w3.org/2000/svg"
            d="M 52.584 56.398 L 55.092 55.792 C 55.282 55.744 55.472 55.863 55.518 56.051 L 55.739 56.966 C 54.831 57.034 53.876 57.189 52.832 57.426 L 52.584 56.398 Z"
            style="fill: rgb(255, 255, 255)"
          ></path>
          <path
            xmlns="http://www.w3.org/2000/svg"
            d="M 49.719 53.235 C 49.696 52.738 49.972 52.226 50.407000000000004 51.961999999999996 C 50.68900000000001 51.79 50.995000000000005 51.724 51.32 51.754 C 51.702 51.797 52.081 51.608 52.282000000000004 51.275 C 52.482000000000006 50.942 52.471000000000004 50.522999999999996 52.255 50.201 C 51.951 49.75 51.811 49.246 51.837 48.701 C 51.88 47.787 52.438 46.959 53.256 46.592 C 54.323 46.113 55.556 46.42 56.255 47.339 C 56.444 47.588 56.739000000000004 47.734 57.051 47.734 C 57.053000000000004 47.734 57.056000000000004 47.734 57.059000000000005 47.734 C 57.374 47.732 57.669000000000004 47.581 57.856 47.327 C 58.105000000000004 46.989999999999995 58.452 46.759 58.858000000000004 46.661 C 59.138000000000005 46.593 59.42 46.595 59.696000000000005 46.666000000000004 C 60.22200000000001 46.803000000000004 60.751000000000005 46.496 60.903000000000006 45.980000000000004 C 61.12800000000001 45.217000000000006 61.69200000000001 44.608000000000004 62.412000000000006 44.349000000000004 C 63.43600000000001 43.979000000000006 64.563 44.312000000000005 65.21900000000001 45.172000000000004 C 65.409 45.423 65.73200000000001 45.582 66.022 45.56700000000001 C 66.337 45.565000000000005 66.632 45.415000000000006 66.819 45.16100000000001 C 67.068 44.824000000000005 67.415 44.59300000000001 67.822 44.49400000000001 C 68.193 44.406000000000006 68.57600000000001 44.43800000000001 68.931 44.59100000000001 C 69.182 44.69800000000001 69.466 44.69800000000001 69.716 44.59300000000001 C 69.967 44.48700000000001 70.16399999999999 44.28200000000001 70.25999999999999 44.02800000000001 C 70.526 43.329000000000015 71.088 42.81200000000001 71.80199999999999 42.61100000000001 C 72.401 42.44100000000001 73.02999999999999 42.51600000000001 73.57199999999999 42.820000000000014 C 74.11399999999999 43.125000000000014 74.50599999999999 43.622000000000014 74.67499999999998 44.22000000000001 C 74.69499999999998 44.29000000000001 74.70899999999999 44.36100000000001 74.72199999999998 44.430000000000014 C 74.81099999999998 44.90400000000001 75.22399999999998 45.24500000000001 75.70499999999998 45.24500000000001 C 75.71299999999998 45.244000000000014 75.72299999999998 45.24500000000001 75.73199999999999 45.24500000000001 C 76.51799999999999 45.24500000000001 77.21299999999998 45.77000000000001 77.42599999999999 46.527000000000015 C 77.56599999999999 47.02200000000001 77.52099999999999 47.503000000000014 77.30099999999999 47.87900000000001 C 77.08299999999998 48.25200000000001 76.69399999999999 48.51600000000001 76.17599999999999 48.64100000000001 L 62.41299999999999 51.966000000000015 C 61.80199999999999 52.113000000000014 61.28599999999999 52.490000000000016 60.95799999999999 53.027000000000015 C 60.63099999999999 53.56300000000002 60.53199999999999 54.19400000000002 60.67899999999999 54.804000000000016 L 62.118999999999986 60.768000000000015 C 62.222999999999985 61.19700000000002 62.152999999999984 61.64100000000001 61.92299999999999 62.018000000000015 C 61.69299999999999 62.396000000000015 61.328999999999986 62.661000000000016 60.89899999999999 62.765000000000015 C 60.009999999999984 62.97600000000001 59.115999999999985 62.432000000000016 58.90099999999999 61.545000000000016 L 57.46099999999999 55.58300000000001 C 57.20099999999999 54.50700000000001 56.23499999999999 53.78200000000001 55.17299999999999 53.78200000000001 C 54.990999999999985 53.78200000000001 54.80599999999999 53.80300000000001 54.621999999999986 53.84800000000001 L 51.506999999999984 54.60100000000001 C 51.08799999999999 54.704000000000015 50.64499999999998 54.612000000000016 50.29699999999998 54.35100000000001 C 49.945 54.086 49.74 53.69 49.719 53.235 Z"
            style="fill: rgb(255, 255, 255)"
          ></path>
          <path
            xmlns="http://www.w3.org/2000/svg"
            d="M 62.624 54.334 C 62.594 54.21 62.637 54.114000000000004 62.666000000000004 54.067 C 62.694 54.021 62.760000000000005 53.939 62.883 53.909 L 76.313 50.663 L 76.565 51.70399999999999 C 73.92099999999999 52.452999999999996 72.54299999999999 53.339999999999996 71.216 54.20199999999999 C 69.814 55.11199999999999 68.49 55.97299999999999 65.51899999999999 56.68999999999999 C 64.71199999999999 56.88499999999999 63.986999999999995 57.00499999999999 63.28999999999999 57.09199999999999 L 62.624 54.334 Z"
            style="fill: rgb(255, 255, 255)"
          ></path>
        </g>
        <g>
          <path
            xmlns="http://www.w3.org/2000/svg"
            d="M 43.229 63.452 L 42.982 63.391999999999996 L 49.72 35.476 C 50.246 35.382999999999996 50.751999999999995 35.177 51.192 34.847 C 52.019 34.228 52.521 33.272 52.569 32.226 C 52.626000000000005 31.000999999999998 51.980000000000004 29.794 50.923 29.151 C 50.727000000000004 29.031 50.522 28.932 50.312000000000005 28.854 C 50.426 28.418 50.474000000000004 27.964 50.452000000000005 27.502 C 50.37200000000001 25.843 49.352000000000004 24.337 47.85300000000001 23.663999999999998 C 46.28500000000001 22.958 44.51200000000001 23.203999999999997 43.226000000000006 24.224999999999998 C 42.831 23.938 42.38100000000001 23.729 41.900000000000006 23.612 C 41.60000000000001 23.540999999999997 41.279 23.500999999999998 40.983000000000004 23.508 C 40.469 22.516 39.604000000000006 21.74 38.554 21.362 C 37.065000000000005 20.825999999999997 35.452000000000005 21.112 34.262 22.058 C 33.867 21.771 33.417 21.562 32.936 21.446 C 32.453 21.328000000000003 31.959 21.309 31.478 21.385 C 30.91 20.516000000000002 30.041 19.865000000000002 29.03 19.579 C 26.853 18.965 24.59 20.138 23.806 22.216 C 22.451 22.493000000000002 21.325000000000003 23.509 20.938000000000002 24.879 C 20.649 25.902 20.765000000000004 26.935000000000002 21.262000000000004 27.784000000000002 C 21.479000000000003 28.155 21.775000000000006 28.470000000000002 22.116000000000003 28.738000000000003 L 21.975 29.319000000000003 L 20.247 28.902 C 17.145 28.150000000000002 14.012 30.066000000000003 13.262 33.168 L 10.326 45.314 C 9.963000000000001 46.817 10.207 48.372 11.013 49.691 C 11.818999999999999 51.010000000000005 13.09 51.937000000000005 14.593 52.299 L 16.315 52.714999999999996 L 15.348 56.712999999999994 L 15.118 56.657 C 14.586 56.525 14.041 56.857 13.911 57.392999999999994 L 13.275 60.025999999999996 C 13.084 60.81699999999999 13.213000000000001 61.635 13.637 62.330999999999996 C 14.062000000000001 63.025999999999996 14.731 63.51499999999999 15.523 63.705 L 39.65 69.535 C 39.888999999999996 69.594 40.131 69.622 40.372 69.622 C 40.926 69.622 41.471 69.47 41.955 69.174 C 42.65 68.75 43.138 68.08000000000001 43.33 67.289 L 43.966 64.657 C 44.028 64.399 43.986000000000004 64.127 43.847 63.9 C 43.709 63.677 43.487 63.514 43.229 63.452 Z"
            style="fill-opacity: 0.9; fill: rgb(0, 0, 0)"
          ></path>
          <path
            xmlns="http://www.w3.org/2000/svg"
            d="M 41.386 66.821 C 41.25 67.382 40.685 67.724 40.121 67.593 L 15.994000000000003 61.763000000000005 C 15.722000000000003 61.697 15.492000000000003 61.529 15.346000000000004 61.290000000000006 C 15.200000000000003 61.05100000000001 15.156000000000004 60.769000000000005 15.221000000000004 60.49700000000001 L 15.622000000000003 58.83700000000001 L 41.788000000000004 65.16000000000001 L 41.386 66.821 Z"
            style="fill-opacity: 0.9; fill: rgb(255, 255, 255)"
          ></path>
          <path
            xmlns="http://www.w3.org/2000/svg"
            d="M 23.255 32.544 C 25.563 33.206999999999994 26.746 33.971 27.985 34.775999999999996 C 29.466 35.738 30.997999999999998 36.733 34.301 37.531 C 35.095 37.724 35.823 37.85 36.527 37.946999999999996 L 36.226 39.193999999999996 C 35.753 41.151999999999994 36.961 43.13099999999999 38.92 43.604 C 39.207 43.673 39.497 43.708 39.785000000000004 43.708 C 40.449000000000005 43.708 41.102000000000004 43.525 41.68300000000001 43.17 C 42.516000000000005 42.661 43.101000000000006 41.858000000000004 43.33100000000001 40.910000000000004 L 44.07200000000001 37.843 C 44.97400000000001 37.889 45.92400000000001 38.026 46.98800000000001 38.266000000000005 L 41.037000000000006 62.922000000000004 L 17.292000000000005 57.184000000000005 L 23.255 32.544 Z"
            style="fill-opacity: 0.9; fill: rgb(247, 181, 0)"
          ></path>
          <path
            xmlns="http://www.w3.org/2000/svg"
            d="M 15.064 50.357 C 13.034 49.866 11.781 47.815 12.272 45.786 L 15.208 33.64 C 15.445 32.656 16.052 31.824 16.916 31.296 C 17.78 30.77 18.797 30.611 19.78 30.846999999999998 L 21.508000000000003 31.264 L 16.787000000000003 50.774 L 15.064 50.357 Z"
            style="fill: rgb(255, 255, 255); fill-rule: nonzero"
          ></path>
          <path
            xmlns="http://www.w3.org/2000/svg"
            d="M 23.977 29.561 L 37.408 32.808 C 37.531 32.837 37.597 32.919 37.625 32.965 C 37.653 33.012 37.696 33.108000000000004 37.667 33.231 L 37 35.99 C 36.304 35.903 35.578 35.783 34.771 35.588 C 31.8 34.870000000000005 30.476 34.01 29.074 33.1 C 27.747 32.238 26.369 31.351000000000003 23.725 30.602 L 23.977 29.561 Z"
            style="fill-opacity: 0.9; fill: rgb(255, 255, 255)"
          ></path>
          <path
            xmlns="http://www.w3.org/2000/svg"
            d="M 22.865 25.424 C 23.078 24.666999999999998 23.773999999999997 24.142 24.558999999999997 24.142 C 24.567999999999998 24.142 24.578999999999997 24.141 24.586 24.142 C 25.067999999999998 24.142 25.482 23.797 25.569 23.322 C 25.582 23.255 25.596 23.185 25.615 23.117 C 25.964 21.882 27.252 21.164 28.488 21.507 C 29.201999999999998 21.709000000000003 29.764 22.226000000000003 30.031 22.926000000000002 C 30.128 23.180000000000003 30.325 23.384 30.575 23.490000000000002 C 30.826 23.596000000000004 31.108999999999998 23.594 31.36 23.488000000000003 C 31.714 23.336000000000002 32.097 23.303000000000004 32.467 23.391000000000002 C 32.875 23.490000000000002 33.222 23.721 33.471 24.058000000000003 C 33.657999999999994 24.312000000000005 33.952999999999996 24.462000000000003 34.267999999999994 24.464000000000002 C 34.611999999999995 24.466 34.88099999999999 24.320000000000004 35.07099999999999 24.069000000000003 C 35.724999999999994 23.209000000000003 36.85099999999999 22.876 37.87699999999999 23.246000000000002 C 38.59699999999999 23.505000000000003 39.16099999999999 24.114 39.38599999999999 24.877000000000002 C 39.53799999999999 25.393 40.069999999999986 25.694000000000003 40.59299999999999 25.563000000000002 C 40.86999999999999 25.493000000000002 41.15199999999999 25.491000000000003 41.42899999999999 25.557000000000002 C 41.83699999999999 25.656000000000002 42.18399999999999 25.887 42.432999999999986 26.225 C 42.61999999999998 26.479000000000003 42.914999999999985 26.629 43.22999999999998 26.631 C 43.231999999999985 26.631 43.234999999999985 26.631 43.23699999999998 26.631 C 43.54899999999998 26.631 43.84399999999998 26.485 44.03299999999998 26.236 C 44.73099999999998 25.316 45.96499999999998 25.009 47.03199999999998 25.489 C 47.84999999999998 25.856 48.40799999999998 26.684 48.45099999999998 27.597 C 48.47699999999998 28.143 48.33599999999998 28.648 48.03299999999998 29.098000000000003 C 47.81599999999998 29.42 47.80499999999998 29.839000000000002 48.00499999999998 30.172000000000004 C 48.204999999999984 30.505000000000006 48.58199999999998 30.692000000000004 48.966999999999985 30.651000000000003 C 49.289999999999985 30.621000000000002 49.597999999999985 30.687000000000005 49.878999999999984 30.858000000000004 C 50.313999999999986 31.124000000000002 50.59099999999999 31.635000000000005 50.566999999999986 32.132000000000005 C 50.545999999999985 32.587 50.33999999999999 32.983000000000004 49.98699999999999 33.24700000000001 C 49.639999999999986 33.507000000000005 49.19999999999999 33.599000000000004 48.77699999999999 33.49700000000001 L 45.661999999999985 32.74300000000001 C 44.39899999999999 32.44200000000001 43.127999999999986 33.21800000000001 42.823999999999984 34.47700000000001 L 41.38299999999998 40.44000000000001 C 41.27899999999998 40.869000000000014 41.01399999999998 41.23300000000001 40.63699999999998 41.463000000000015 C 40.25999999999998 41.692000000000014 39.81599999999998 41.76300000000001 39.38599999999998 41.65900000000001 C 38.49899999999998 41.44400000000001 37.951999999999984 40.549000000000014 38.16599999999998 39.66200000000001 L 39.606999999999985 33.698000000000015 C 39.753999999999984 33.088000000000015 39.65499999999999 32.457000000000015 39.32799999999998 31.921000000000014 C 39.000999999999976 31.385000000000012 38.48399999999998 31.008000000000013 37.87299999999998 30.861000000000015 L 24.109999999999985 27.535000000000014 C 23.591999999999985 27.410000000000014 23.202999999999985 27.146000000000015 22.984999999999985 26.773000000000014 C 22.77 26.399 22.725 25.919 22.865 25.424 Z"
            style="fill: rgb(255, 255, 255)"
          ></path>
          <path
            xmlns="http://www.w3.org/2000/svg"
            d="M 47.459 36.323 C 46.415 36.087 45.46 35.931 44.552 35.863 L 44.773 34.948 C 44.818 34.76 45.007 34.648 45.197 34.688 L 47.707 35.295 L 47.459 36.323 Z"
            style="fill-opacity: 0.9; fill: rgb(255, 255, 255)"
          ></path>
          <path
            d="M 44.273 63.639 C 44.446 63.958 44.518 64.42 44.452 64.774 L 43.816 67.407 C 43.583 68.286 42.982 69.11 42.216 69.601 C 41.668 69.924 40.993 70.122 40.372 70.122 C 40.102 70.122 39.803 70.086 39.533 70.021 L 15.406 64.191 C 14.525 63.96 13.701 63.358 13.21 62.591 C 12.753 61.804 12.594 60.797 12.789 59.909 L 13.425 57.275 C 13.536 56.913 13.809 56.527 14.104 56.348 C 14.398 56.168 14.864 56.102 15.236 56.171 L 14.98 56.109 L 15.711 53.084 L 14.476 52.785 C 12.884 52.382 11.442 51.352 10.586 49.952 C 9.73 48.551 9.473 46.797 9.84 45.197 L 12.776 33.051 C 13.196 31.405 14.271 29.982 15.612 29.163 C 16.953 28.344 18.709 28.037 20.364 28.416 L 21.281 28.637 C 21.112 28.45 20.957 28.247 20.83 28.037 C 20.301 27.089 20.16 25.862 20.457 24.743 C 20.917 23.255 22.079 22.207 23.443 21.796 C 23.886 20.674 24.657 19.957 25.669 19.442 C 26.68 18.928 27.979 18.783 29.166 19.098 C 30.259 19.424 31.081 20.043 31.712 20.857 C 32.156 20.825 32.522 20.835 33.054 20.96 C 33.581 21.092 33.88 21.237 34.251 21.455 C 35.527 20.627 37.106 20.345 38.723 20.892 C 39.856 21.319 40.69 22.069 41.276 23.017 C 41.526 23.033 41.692 23.05 42.018 23.126 C 42.545 23.259 42.845 23.404 43.215 23.623 C 44.601 22.727 46.353 22.482 48.058 23.208 C 49.662 23.969 50.829 25.691 50.951 27.478 C 50.972 27.978 50.942 28.205 50.884 28.56 C 50.987 28.611 50.966 28.593 51.183 28.724 C 52.33 29.463 53.096 30.895 53.068 32.249 C 52.992 33.4 52.39 34.544 51.492 35.247 C 50.996 35.609 50.609 35.763 50.134 35.893 L 43.585 63.024 L 43.1 62.906 L 43.346 62.966 C 43.693 63.069 44.071 63.346 44.273 63.639 Z M 43.112 63.938 L 42.864 63.878 L 42.379 63.76 L 49.312 35.037 L 49.633 34.984 C 50.108 34.905 50.508 34.745 50.892 34.447 C 51.647 33.912 52.05 33.144 52.07 32.203 C 52.156 31.108 51.63 30.126 50.663 29.578 C 50.489 29.47 50.326 29.391 50.138 29.323 L 49.71 29.167 L 49.828 28.728 C 49.936 28.328 49.976 27.95 49.953 27.526 C 49.915 25.995 49.043 24.705 47.648 24.12 C 46.217 23.434 44.702 23.647 43.537 24.617 L 43.243 24.861 L 42.932 24.63 C 42.579 24.367 42.217 24.199 41.782 24.098 C 41.51 24.032 41.254 23.999 40.995 24.008 L 40.679 24.019 L 40.539 23.738 C 40.08 22.817 39.352 22.161 38.385 21.832 C 37.024 21.307 35.651 21.554 34.573 22.449 L 34.279 22.694 L 33.968 22.463 C 33.615 22.2 33.253 22.032 32.819 21.932 C 32.385 21.821 31.988 21.806 31.556 21.879 L 31.233 21.933 L 31.059 21.659 C 30.551 20.853 29.823 20.306 28.894 20.06 C 27.905 19.761 26.983 19.896 26.122 20.334 C 25.262 20.771 24.614 21.436 24.274 22.392 L 24.179 22.658 L 23.906 22.706 C 22.669 22.924 21.733 23.763 21.419 25.015 C 21.138 25.942 21.229 26.781 21.694 27.531 C 21.877 27.857 22.112 28.102 22.425 28.345 L 22.678 28.541 L 22.343 29.922 L 20.13 29.388 C 18.683 29.015 17.322 29.29 16.133 30.016 C 14.944 30.743 14.078 31.829 13.748 33.285 L 10.812 45.431 C 10.453 46.837 10.684 48.193 11.44 49.43 C 12.196 50.668 13.296 51.492 14.71 51.813 L 16.432 52.229 L 16.919 52.346 L 15.716 57.317 L 15 57.143 C 14.84 57.08 14.767 57.114 14.624 57.201 C 14.481 57.289 14.416 57.337 14.397 57.511 L 13.761 60.143 C 13.574 60.837 13.673 61.466 14.064 62.071 C 14.423 62.694 14.937 63.07 15.64 63.219 L 39.767 69.049 C 39.975 69.102 40.16 69.122 40.372 69.122 C 40.859 69.122 41.273 69.016 41.694 68.747 C 42.317 68.39 42.693 67.874 42.844 67.171 L 43.48 64.54 C 43.538 64.378 43.526 64.297 43.421 64.162 C 43.348 64.01 43.281 63.959 43.112 63.938 Z M 47.349 36.811 C 46.32 36.578 45.401 36.427 44.515 36.362 L 43.928 36.318 L 44.066 35.746 L 44.287 34.832 C 44.355 34.642 44.519 34.398 44.671 34.305 C 44.823 34.213 45.121 34.181 45.315 34.202 L 48.31 34.926 L 47.829 36.92 Z M 47.104 35.664 L 45.224 35.209 L 45.173 35.42 C 45.931 35.505 46.208 35.549 47.087 35.731 Z M 22.384 25.288 C 22.527 24.833 22.837 24.372 23.196 24.1 C 23.555 23.829 24.083 23.642 24.559 23.642 C 24.548 23.642 24.574 23.644 24.617 23.645 L 24.586 23.642 C 24.737 23.659 24.793 23.62 24.905 23.526 C 25.018 23.432 25.067 23.379 25.078 23.227 C 25.091 23.158 25.11 23.067 25.134 22.981 C 25.357 22.271 25.877 21.618 26.475 21.284 C 27.072 20.95 27.903 20.848 28.624 21.026 C 29.439 21.284 30.167 21.953 30.498 22.748 C 30.541 22.917 30.602 22.98 30.77 23.03 C 30.922 23.116 31.01 23.114 31.165 23.028 C 31.596 22.856 32.136 22.811 32.585 22.905 C 33.073 23.039 33.562 23.365 33.874 23.762 C 33.973 23.941 34.068 23.989 34.271 23.964 C 34.494 23.996 34.563 23.948 34.673 23.766 C 35.06 23.28 35.63 22.882 36.193 22.717 C 36.757 22.551 37.453 22.576 38.046 22.776 C 38.865 23.1 39.584 23.874 39.866 24.736 C 39.894 24.904 39.956 24.948 40.097 25.028 C 40.239 25.108 40.31 25.139 40.471 25.078 C 40.808 25.001 41.21 24.998 41.547 25.071 C 42.034 25.205 42.524 25.531 42.836 25.929 C 42.935 26.108 43.027 26.156 43.23 26.131 C 43.232 26.131 43.235 26.131 43.237 26.131 C 43.438 26.131 43.534 26.11 43.635 25.934 C 44.049 25.414 44.667 25.003 45.273 24.852 C 45.879 24.702 46.62 24.772 47.237 25.033 C 48.16 25.488 48.865 26.532 48.95 27.573 C 48.967 28.198 48.784 28.855 48.448 29.377 C 48.273 29.566 48.303 29.697 48.434 29.915 C 48.564 30.132 48.673 30.219 48.921 30.153 C 49.319 30.128 49.781 30.23 50.14 30.431 C 50.664 30.792 51.06 31.528 51.066 32.156 C 51.017 32.714 50.712 33.298 50.287 33.647 C 49.841 33.952 49.192 34.087 48.659 33.983 L 45.546 33.229 C 45.019 33.081 44.582 33.184 44.144 33.452 C 43.706 33.719 43.417 34.059 43.31 34.594 L 41.869 40.558 C 41.724 41.075 41.345 41.594 40.897 41.89 C 40.429 42.153 39.796 42.253 39.268 42.145 C 38.731 41.992 38.204 41.611 37.936 41.173 C 37.669 40.736 37.57 40.093 37.68 39.545 L 39.121 33.581 C 39.264 33.068 39.178 32.636 38.901 32.181 C 38.624 31.727 38.278 31.453 37.756 31.347 L 23.993 28.021 C 23.393 27.86 22.845 27.476 22.552 27.022 C 22.304 26.547 22.236 25.875 22.384 25.288 Z M 23.417 26.522 C 23.56 26.814 23.791 26.96 24.227 27.049 L 37.99 30.375 C 38.69 30.563 39.378 31.043 39.755 31.661 C 40.132 32.278 40.244 33.108 40.093 33.815 L 38.652 39.779 C 38.548 40.118 38.615 40.366 38.79 40.652 C 38.964 40.937 39.154 41.111 39.504 41.173 C 39.835 41.273 40.09 41.232 40.377 41.036 C 40.682 40.872 40.834 40.663 40.897 40.322 L 42.338 34.36 C 42.535 33.636 43.033 32.958 43.623 32.598 C 44.212 32.238 45.042 32.104 45.778 32.257 L 48.895 33.011 C 49.208 33.111 49.439 33.062 49.687 32.847 C 49.968 32.668 50.074 32.46 50.068 32.109 C 50.121 31.743 49.964 31.457 49.619 31.285 C 49.415 31.145 49.263 31.115 49.018 31.148 C 48.495 31.164 47.846 30.878 47.576 30.429 C 47.307 29.981 47.359 29.274 47.618 28.819 C 47.888 28.441 47.986 28.088 47.952 27.621 C 47.951 26.836 47.54 26.224 46.827 25.945 C 46.378 25.727 45.968 25.71 45.515 25.823 C 45.063 25.935 44.715 26.138 44.431 26.538 C 44.154 26.86 43.66 27.131 43.237 27.131 C 43.235 27.131 43.232 27.131 43.23 27.131 C 42.803 27.102 42.305 26.85 42.03 26.522 C 41.844 26.243 41.64 26.107 41.312 26.043 C 41.095 25.984 40.933 25.985 40.716 26.048 C 40.353 26.118 39.897 26.064 39.604 25.898 C 39.31 25.731 39.031 25.366 38.906 25.018 C 38.738 24.355 38.329 23.91 37.708 23.717 C 37.275 23.546 36.895 23.553 36.476 23.676 C 36.056 23.799 35.737 23.998 35.469 24.371 C 35.199 24.691 34.73 24.936 34.265 24.964 C 33.838 24.935 33.344 24.683 33.069 24.355 C 32.882 24.078 32.679 23.941 32.35 23.877 C 32.06 23.795 31.834 23.815 31.557 23.947 C 31.211 24.073 30.73 24.076 30.38 23.951 C 30.048 23.788 29.715 23.443 29.564 23.104 C 29.361 22.499 28.966 22.134 28.353 21.988 C 27.839 21.824 27.406 21.909 26.963 22.157 C 26.52 22.404 26.222 22.728 26.096 23.253 C 26.082 23.302 26.073 23.352 26.06 23.417 C 25.984 23.74 25.782 24.097 25.546 24.294 C 25.322 24.48 24.96 24.61 24.641 24.638 L 24.515 24.637 C 24.566 24.637 24.591 24.642 24.559 24.642 C 24.25 24.642 24.038 24.718 23.799 24.898 C 23.56 25.078 23.416 25.258 23.346 25.559 C 23.215 25.963 23.236 26.25 23.417 26.522 Z M 24.094 29.075 L 37.523 32.321 C 37.783 32.437 38.008 32.636 38.055 32.709 C 38.096 32.782 38.167 33.066 38.153 33.348 L 37.381 36.542 L 36.938 36.486 C 36.232 36.398 35.478 36.273 34.654 36.074 C 31.605 35.323 30.204 34.429 28.802 33.519 C 27.475 32.658 26.166 31.802 23.589 31.083 L 23.125 30.954 L 23.609 28.958 Z M 24.323 30.259 C 26.741 31.007 28.019 31.818 29.346 32.681 C 30.748 33.591 31.995 34.417 34.888 35.102 C 35.677 35.293 36.073 35.356 36.62 35.435 L 37.146 33.259 L 24.345 30.164 Z M 14.946 50.843 C 13.837 50.552 12.848 49.813 12.296 48.909 C 11.744 48.005 11.538 46.788 11.786 45.669 L 14.722 33.523 C 15 32.45 15.72 31.463 16.656 30.869 C 17.611 30.309 18.817 30.121 19.897 30.361 L 22.112 30.895 L 17.155 51.378 Z M 16.419 50.17 L 20.904 31.633 L 19.663 31.333 C 18.777 31.101 17.949 31.23 17.176 31.723 C 16.384 32.185 15.89 32.862 15.694 33.757 L 12.758 45.903 C 12.515 46.813 12.69 47.636 13.149 48.388 C 13.609 49.14 14.261 49.671 15.182 49.871 Z M 23.393 32.063 C 25.768 32.757 27.018 33.551 28.257 34.357 C 29.738 35.319 31.194 36.28 34.419 37.045 C 35.197 37.235 35.9 37.356 36.595 37.452 L 37.143 37.527 L 36.712 39.311 C 36.478 40.186 36.646 40.973 37.088 41.695 C 37.529 42.418 38.152 42.927 39.037 43.118 C 39.296 43.182 39.527 43.208 39.785 43.208 C 40.382 43.208 40.904 43.071 41.422 42.743 C 42.184 42.3 42.656 41.652 42.845 40.793 L 43.683 37.322 L 44.097 37.344 C 45.022 37.392 46.015 37.535 47.098 37.778 L 47.593 37.89 L 41.406 63.525 L 16.688 57.553 L 22.892 31.917 Z M 17.896 56.815 L 40.668 62.319 L 46.382 38.646 C 45.619 38.488 45.211 38.429 44.459 38.369 L 43.817 41.027 C 43.546 42.064 42.848 43.022 41.944 43.597 C 41.3 43.979 40.516 44.208 39.785 44.208 C 39.467 44.208 39.119 44.164 38.803 44.09 C 37.729 43.808 36.768 43.091 36.234 42.216 C 35.7 41.342 35.501 40.16 35.74 39.077 L 35.913 38.361 C 35.363 38.274 34.993 38.213 34.183 38.017 C 30.802 37.186 29.194 36.157 27.713 35.195 C 26.474 34.391 25.532 33.771 23.617 33.173 Z M 41.872 66.939 C 41.758 67.314 41.479 67.708 41.174 67.894 C 40.87 68.079 40.388 68.147 40.004 68.079 L 15.876 62.249 C 15.516 62.142 15.115 61.871 14.919 61.551 C 14.723 61.23 14.666 60.748 14.735 60.38 L 15.253 58.234 L 42.392 64.791 L 42.274 65.278 Z M 41.184 65.529 L 15.991 59.44 L 15.707 60.614 C 15.646 60.79 15.677 60.872 15.773 61.029 C 15.869 61.187 15.928 61.252 16.112 61.277 L 40.238 67.107 C 40.418 67.17 40.501 67.133 40.654 67.039 C 40.807 66.946 40.878 66.889 40.9 66.703 Z"
            style="fill: none"
          ></path>
        </g>
        <g>
          <path
            xmlns="http://www.w3.org/2000/svg"
            d="M49.206,11.371l-0.091,5.249c-0.009,0.553,0.431,1.008,0.983,1.018c0.006,0,0.012,0,0.018,0c0.544,0,0.99-0.437,1-0.982  l0.091-5.249c0.009-0.553-0.431-1.008-0.983-1.018C49.645,10.354,49.215,10.819,49.206,11.371z"
          ></path>
          <path
            xmlns="http://www.w3.org/2000/svg"
            d="M57.83,12.146l-2.703,4.501c-0.284,0.474-0.131,1.088,0.343,1.372c0.161,0.097,0.338,0.143,0.514,0.143  c0.339,0,0.671-0.173,0.858-0.485l2.703-4.501c0.284-0.474,0.131-1.088-0.343-1.372C58.729,11.519,58.114,11.672,57.83,12.146z"
          ></path>
          <path
            xmlns="http://www.w3.org/2000/svg"
            d="M41.033,11.836c-0.468,0.293-0.611,0.91-0.318,1.378l2.78,4.453c0.189,0.304,0.516,0.471,0.849,0.471  c0.181,0,0.364-0.049,0.529-0.151c0.468-0.293,0.611-0.91,0.318-1.378l-2.78-4.453C42.119,11.688,41.503,11.544,41.033,11.836z"
          ></path>
        </g>
      </g>
    </g>
  </g>
</svg>
