<svg preserveAspectRatio="xMidYMid meet" class="css-8aabad" id="ahcggheh" xmlns="http://www.w3.org/2000/svg">
  <defs id="SvgjsDefs1201"></defs>
  <g id="Joshua" featurekey="nameLeftFeature-0" transform="matrix(1.90124, 0, 0, 1.923076, -0.182213, -4.359997)" fill="#111" style="transform-origin: 0.18px 4.36px;">
    <path d="M1.9 22 c-0.28 -0.06 -0.5 -0.34 -0.86 -0.34 l0.08 -0.04 c-0.08 -0.16 -0.32 -0.3 -0.44 -0.42 c0 -0.32 -0.5 0.04 -0.5 -1.28 c0 -0.56 0.24 -0.78 0.42 -1.06 l0 0.02 l0 0 c0 -0.06 0.5 -0.58 1.1 -0.58 c0.38 0 0.4 0.16 0.66 0.16 l0 0.04 c0.5 0.08 0.7 0.6 0.86 1.06 l0 0.56 c-0.04 0 -0.08 0.18 -0.1 0.2 c0.02 0.02 0.02 0.04 0.02 0.06 c0 0.12 -0.3 0.28 -0.3 0.62 c0 0.3 0.16 0.18 0.34 0.3 c0.8 0 0.58 -0.42 1.06 -0.46 l-0.04 0 c0 -0.06 0.28 -0.3 0.32 -0.38 c0 -1.34 0.18 0.3 0.18 -1.9 c0 -0.6 -0.06 -2.06 -0.06 -2.44 c0 -0.84 0.04 -0.86 0.04 -1.1 c0 -0.1 -0.04 -0.28 -0.04 -0.3 s0.02 -0.04 0.04 -0.08 l0 -0.4 c0 -0.06 0.12 -0.14 0.12 -0.32 l-0.04 0.08 l-0.04 0 c-0.04 -0.56 -0.1 -2 -0.1 -2.1 c0 -0.02 0.06 -0.04 0.06 -0.36 l0 0.02 c0 -0.02 -0.04 -0.2 -0.04 -0.26 l0 -4.52 c0 -0.04 0.04 -0.26 0.04 -0.34 c0 -0.4 0 -0.72 -0.24 -0.86 l-1.88 0 c-0.02 -0.04 -0.18 -0.04 -0.18 -0.28 c0 -0.46 0.16 -0.3 0.3 -0.42 l5.34 0 c0.6 0 0.94 -0.04 0.98 -0.04 c0.2 0 0.58 0.04 0.58 0.34 c-0.1 0 0.08 0.4 -0.42 0.4 c-0.12 0 -0.34 -0.04 -0.5 -0.04 c-0.46 0 -0.9 0.04 -1.04 0.1 c0 -0.02 0 -0.02 -0.02 -0.02 s-0.06 0.5 -0.06 1.54 c-0.06 0 -0.12 0 -0.16 0.02 c0.2 1.02 0.22 1.96 0.22 2.64 c0 0.74 -0.02 1.02 -0.02 1.1 c0 0.12 0.02 0.26 0.02 0.38 c0 0.16 -0.02 0.36 -0.02 0.38 c0 0.08 0.02 0.18 0.02 0.28 c-0.02 0.04 -0.02 0.06 -0.02 0.12 c0 0.12 0.02 0.36 0.02 0.66 c0 0.06 0 0.38 -0.02 0.44 c0 0.04 0.02 0.2 0.02 0.26 c0 0.02 -0.04 0.24 -0.04 0.66 c0 0.08 0.02 0.16 0.04 0.18 c-0.02 0 -0.02 0.46 -0.02 0.5 c0 0.24 0.02 0.42 0.02 0.66 c0 0.02 -0.02 0.36 -0.02 0.38 c0 0.04 0.02 0.22 0.02 0.26 s-0.02 0.16 -0.02 0.36 c0 0 0 0.06 0.02 0.12 l0 1 c0 0.04 -0.02 0.12 -0.02 0.16 c0 0 0 0.1 0.02 0.28 c0 0.22 -0.14 0.14 -0.14 0.6 c-0.08 0.84 -0.02 0.32 -0.38 1.12 c-0.36 0.34 0.1 -0.06 -0.56 0.74 c-0.68 0.38 0.16 0.02 -0.9 0.76 c-0.02 0.1 -0.54 0.34 -0.56 0.36 c0.02 0.04 0.04 0.06 0.08 0.08 c-0.58 0 -0.62 0.26 -0.74 0.26 l0.02 0 c0 0.02 -0.2 0.12 -0.64 0.12 c-1.12 0 -1.58 -0.04 -1.88 -0.04 z M5.12 14.76 c0 -0.02 -0.02 -0.02 -0.02 -0.02 c-0.02 0 -0.02 0 -0.02 0.02 s0 0.02 0.02 0.02 c0 0 0.02 0 0.02 -0.02 z M4.8 14.34 c-0.02 0 -0.04 0.02 -0.04 0.02 c0 0.02 0.02 0.04 0.04 0.04 s0.02 -0.02 0.02 -0.04 c0 0 0 -0.02 -0.02 -0.02 z M4.76 13.6 c0 0.08 0.04 0.2 0.1 0.2 c0 -0.08 -0.02 -0.22 -0.06 -0.22 z M4.8 13.1 l0 0.04 l0.04 -0.04 l-0.04 0 z M4.8 11.48 c-0.02 0 -0.04 0 -0.04 0.02 s0.02 0.04 0.04 0.04 s0.02 -0.02 0.02 -0.04 s0 -0.02 -0.02 -0.02 z M2.8 5.42 c0 0.1 0.02 0.1 0.06 0.1 c0.06 0 0.18 -0.02 0.26 -0.02 c-0.02 -0.1 -0.02 -0.16 -0.06 -0.2 c-0.04 0.02 -0.06 0.06 -0.06 0.08 c0 0 -0.08 -0.04 -0.1 -0.04 c-0.1 0.02 -0.1 -0.02 -0.1 0.08 z M3.38 5.42 c0 0.02 -0.02 0.02 -0.02 0.04 c0 0.04 0.08 0.06 0.1 0.06 l0.2 0 c0 -0.02 0 -0.16 -0.02 -0.16 l-0.22 0 c-0.04 0 -0.06 0.02 -0.06 0.04 z M4.32 5.42 c-0.02 0 -0.04 0.02 -0.04 0.04 s0.02 0.04 0.04 0.04 s0.02 -0.02 0.02 -0.04 s0 -0.04 -0.02 -0.04 z M4.4 5.359999999999999 l-0.02 0.1 l0.06 -0.08 z M9.26 5.359999999999999 l-0.02 0 c0 0.02 0 0.02 0.02 0.02 s0.02 0 0.02 -0.02 l-0.02 0 z M8.5 5.34 l-0.02 0.02 l0.02 0.02 l0.02 -0.02 z M3.34 5.26 c0 0.06 0.02 0.06 0.04 0.08 c0.02 -0.02 0.1 -0.04 0.12 -0.08 l-0.04 -0.08 c-0.04 0.02 -0.1 0.04 -0.12 0.08 z M9.34 5.26 l0 0.08 l0.06 -0.08 l-0.06 0 z M2.6 5.220000000000001 c-0.02 0 -0.04 0.02 -0.04 0.04 s0.02 0.04 0.04 0.04 s0.02 -0.02 0.02 -0.04 s0 -0.04 -0.02 -0.04 z M5.54 5.18 c0 0.02 -0.02 0.02 -0.02 0.04 s0.02 0.02 0.06 0.04 l0 -0.08 l-0.04 0 z M4.7 5.18 l0 0.04 l0.06 0 l0 -0.04 l-0.06 0 z M8.04 5.1 c-0.02 0 -0.02 0.02 -0.02 0.06 c0 0.02 0 0.02 0.02 0.02 s0.02 0 0.02 -0.02 c0 -0.04 0 -0.06 -0.02 -0.06 z M2.96 5.1 c0 0.02 -0.02 0.02 -0.02 0.04 s0.02 0.02 0.06 0.04 l0.02 -0.08 c0 -0.02 0 -0.04 -0.02 -0.08 c-0.04 0.02 -0.06 0.04 -0.06 0.06 z M7.76 5.1 c-0.02 0 -0.02 0.02 -0.02 0.04 s0 0.04 0.02 0.04 s0.02 -0.02 0.02 -0.04 s0 -0.04 -0.02 -0.04 z M9.14 5 c0.04 0.1 0.06 0.14 0.1 0.14 c0.02 0 0.02 -0.02 0.02 -0.04 c0 -0.1 -0.08 -0.1 -0.12 -0.1 z M3.5 5.0600000000000005 c-0.02 0 -0.04 0.02 -0.04 0.04 s0.02 0.04 0.04 0.04 s0.02 -0.02 0.02 -0.04 s0 -0.04 -0.02 -0.04 z M4.28 5.02 c-0.02 0 -0.04 0.02 -0.04 0.04 s0.02 0.04 0.04 0.04 s0.02 -0.02 0.02 -0.04 s0 -0.04 -0.02 -0.04 z M17.599 19.46 l0.04 -0.04 c0 -0.02 0 -0.02 -0.04 -0.04 l0 0 l-0.02 0 c-0.02 0 -0.04 0 -0.06 0.04 l0 -0.02 s-0.02 0.04 -0.1 0.04 s-0.2 -0.02 -0.36 -0.14 c0 0.02 -0.02 0.02 -0.02 0.02 c-0.04 0 -0.2 -0.22 -0.26 -0.22 c-0.1 0 -0.38 -0.08 -1.62 -1.32 l0 -0.08 c-0.24 -0.12 -0.5 -0.46 -0.58 -0.62 c-0.04 -0.78 -0.62 -0.22 -0.62 -1.2 c-0.02 0 -0.06 0.04 -0.06 0.04 c0.02 0 0.02 0 0.02 -0.02 c0 -0.06 -0.48 -0.42 -0.48 -0.84 c-0.12 -0.9 -0.2 -0.54 -0.2 -1.16 l-0.04 -0.04 c0 -0.2 -0.06 -0.62 -0.16 -0.8 l0.02 -1.44 l0.06 -0.82 c0.02 -0.26 0.18 -0.38 0.2 -1.18 l0 0.02 c0.02 0 0.18 -0.7 0.32 -0.84 l-0.02 0.02 c-0.02 0 0.4 -0.54 0.4 -0.68 c0 -0.16 0.52 -0.44 0.52 -0.82 c0.2 -0.18 0 -0.08 0.86 -0.92 c0.22 0 0.14 -0.36 0.36 -0.36 l-0.02 -0.04 c0.06 0 0.2 -0.12 0.42 -0.34 c0.64 -0.42 -0.4 0.04 1.7 -0.94 c0 0 0.02 0.02 0.04 0.02 c0.22 0 0.68 -0.3 1 -0.3 c0.44 0 1.8 -0.08 1.98 -0.08 c0.7 0 0.9 0.26 1.1 0.26 c0.74 0.06 0.94 0.58 1.22 0.58 c0.02 0 0.02 -0.02 0.08 -0.02 c0.08 0 0.26 0.08 0.74 0.56 c0 0.14 0.24 0.14 0.32 0.26 l-0.04 0.04 c0.1 0.04 0.48 0.32 0.64 0.64 c0 0.06 0.36 0.18 0.36 0.38 c-0.02 0 -0.02 0 -0.02 0.02 c0 0.06 0.5 0.4 0.5 0.62 c-0.02 0 -0.04 0 -0.04 0.02 c0 0.06 0.4 0.3 0.4 0.6 c0.06 0.54 0.52 0.7 0.52 1.16 c-0.02 0.02 -0.02 0.04 -0.02 0.06 c0 0.16 0.34 0.46 0.34 1.1 c0 0.8 0.16 1.36 0.16 1.48 c0 0.34 -0.2 0.94 -0.2 1.68 c-0.16 0.9 -0.92 2.58 -1.12 2.72 c-0.04 0 -0.24 0.5 -0.42 0.58 c0 -0.02 -0.7 1.04 -1.16 1.22 c-0.3 0.2 -0.18 0.26 -1.22 0.98 c-0.04 0.06 -0.4 0.02 -0.6 0.2 c-1.72 0.58 -1.68 0.46 -1.8 0.58 l-1.38 0 c-0.06 0 -0.24 -0.1 -0.34 -0.1 c-0.04 0 -0.5 -0.26 -0.8 -0.26 c-0.4 0 -0.32 -0.24 -0.5 -0.26 z M20.079 19.88 c0 0 -0.02 0.02 -0.02 0.04 l0.02 0.02 c0.02 0 0.02 -0.02 0.02 -0.02 c0 -0.02 0 -0.04 -0.02 -0.04 z M20.659 19.88 c0 0.02 -0.02 0.02 -0.02 0.02 c0 0.02 0.02 0.02 0.06 0.04 l0.04 -0.06 l-0.08 0 z M20.799 19.84 c-0.02 0 -0.04 0.02 -0.04 0.04 s0.02 0.04 0.04 0.04 l0 -0.08 z M18.698999999999998 19.78 c0 -0.02 -0.02 -0.02 -0.02 -0.02 c-0.02 0 -0.02 0 -0.02 0.02 s0 0.04 0.02 0.04 c0 0 0.02 -0.02 0.02 -0.04 z M18.639 19.72 c-0.02 0 -0.04 0.02 -0.04 0.02 c0 0.02 0.02 0.04 0.04 0.04 l0 -0.06 z M20.079 19.72 l-0.02 0.02 l0.04 0 s0 -0.02 -0.02 -0.02 z M20.619 19.7 c0 0 -0.02 0.02 -0.02 0.04 l0.04 0 c0 -0.02 0 -0.04 -0.02 -0.04 z M19.359 19.66 c-0.02 0 -0.04 0.02 -0.04 0.04 c0 0 0.02 0.02 0.04 0.02 l0 -0.06 z M20.698999999999998 19.66 c-0.02 0 -0.04 0.02 -0.04 0.04 c0 0 0.02 0.02 0.04 0.02 s0.02 -0.02 0.02 -0.02 c0 -0.02 0 -0.04 -0.02 -0.04 z M21.439 19.5 c-0.02 0 -0.04 0.02 -0.04 0.04 c0 0 0.02 0.02 0.04 0.02 s0.02 -0.02 0.02 -0.02 c0 -0.02 0 -0.04 -0.02 -0.04 z M16.499 16.36 c0.06 0.2 0.14 0.3 0.14 0.56 c0 0.3 0.32 0.56 0.32 0.94 c0.26 0.4 -0.18 -0.04 0.8 0.96 c0.02 0 0.02 -0.02 0.02 -0.02 c0.06 0 0 0.24 0.44 0.24 c-0.02 0 0.5 0.34 1.18 0.34 l0.78 0 c0.88 0 1.58 -0.06 2.24 -0.72 c-0.02 0 0.5 -0.38 0.54 -0.58 c0 0.02 0 0.04 0.02 0.04 c0.08 0 0.46 -0.96 0.46 -1.32 c0 -1.78 0.32 -2.84 0.32 -3.12 c0 -0.06 -0.04 -0.26 -0.04 -0.46 c0 -0.62 0.04 -0.84 0.04 -1.1 c0 -0.06 -0.08 -0.66 -0.08 -0.7 c0 0 -0.02 0 -0.02 -0.02 c0 -0.06 0.08 -0.26 0.08 -0.82 c0 -0.06 -0.08 -0.2 -0.08 -0.66 c0 -1.68 -0.3 -2.18 -0.34 -2.82 l-0.02 0.02 c-0.06 0 0.04 -0.38 -0.22 -0.64 c-0.58 -0.58 -0.56 -0.78 -0.66 -0.82 c-0.04 0 -0.28 -0.24 -0.32 -0.24 c0 0.02 0 0.06 -0.02 0.06 c-0.08 0 -0.54 -0.48 -1.04 -0.48 c-0.46 0 -0.8 -0.12 -1.14 -0.12 c-0.74 0 -1.42 0.5 -1.84 0.5 c-0.34 0.08 -0.6 0.36 -0.9 0.88 c-0.02 0.04 -0.46 0.36 -0.46 0.96 c0 0.02 0.02 0.02 0.02 0.04 c0 0.08 -0.22 0.2 -0.22 1.02 c-0.04 1.14 -0.2 -0.38 -0.2 2.72 l0 1.9 c0 0.64 0.04 0.98 0.04 2.02 l0.04 0.06 c0 0.28 0.04 0.8 0.12 0.8 l0 0.58 z M22.819 19.2 l0 0.02 l0.04 0 z M16.619 18.84 c-0.02 0 -0.04 0.02 -0.04 0.02 c0 0.02 0.02 0.02 0.04 0.02 c0 0 0.02 0 0.02 -0.02 z M16.579 18.78 c-0.02 0 -0.04 0.02 -0.04 0.04 s0.02 0.02 0.04 0.02 s0.02 0 0.02 -0.02 s0 -0.04 -0.02 -0.04 z M16.739 18.24 l0 0.04 l0.04 0 l0 -0.04 l-0.04 0 z M15.059 17.46 c0.02 0.02 -0.02 0.04 0.06 0.04 c-0.02 -0.04 -0.06 -0.04 -0.06 -0.04 z M14.259 16.36 c-0.02 0 -0.04 0.02 -0.04 0.04 s0.02 0.04 0.04 0.04 s0.02 -0.02 0.02 -0.04 s0 -0.04 -0.02 -0.04 z M13.199 12.54 c0.02 0.02 0.02 0.04 0.04 0.04 l0.02 -0.02 z M24.939 7.16 l0 -0.02 c-0.02 0 -0.02 0 -0.02 0.02 s0 0.02 0.02 0.02 l0 -0.02 z M24.039 6.119999999999999 c0 0 -0.02 0.02 -0.02 0.04 s0.02 0.04 0.02 0.04 c0.02 0 0.02 -0.02 0.02 -0.04 s0 -0.04 -0.02 -0.04 z M16.739 5.58 c-0.06 0 -0.08 0 -0.12 0.04 l0.12 0 l0 -0.04 z M17.559 5.16 l-0.02 0 c0 0.02 0 0.04 0.02 0.04 l0 -0.04 z M21.339 4.84 c-0.08 0 -0.2 0.02 -0.26 0.04 l0 0.02 c0.06 0 0.26 0.02 0.26 -0.04 l0 -0.02 z M19.399 4.74 l-0.02 0.02 c0 0.02 0.06 0.04 0.1 0.04 l0 -0.16 c-0.08 0 -0.08 0.04 -0.08 0.1 z M21.639 4.779999999999999 c-0.02 0 -0.04 0.02 -0.04 0.02 c0 0.02 0.02 0.04 0.04 0.04 c0 0 0.02 -0.02 0.02 -0.04 z M18.698999999999998 4.779999999999999 c0 -0.02 -0.04 -0.02 -0.06 -0.02 s-0.06 0 -0.06 0.02 s0.02 0.02 0.06 0.02 c0 0 0.04 0 0.06 -0.02 z M18.859 4.74 l0 0.04 l0.06 0 l0 -0.04 l-0.06 0 z M19.859 4.619999999999999 c-0.02 0 -0.14 0.08 -0.22 0.12 l0.02 0.02 c0.08 0 0.2 -0.08 0.2 -0.14 z M20.759 4.619999999999999 l0 0.06 l0.04 0 l0 -0.06 l-0.04 0 z M32.898 19.42 c-0.18 0 -0.28 0.04 -0.4 0.06 c-0.18 0 -0.14 0 -0.16 -0.02 l-0.06 0.02 c0 0.06 0.02 0.06 0.06 0.08 c0 -0.02 -0.06 0.04 -0.1 0.12 l0.02 0 c0 0.02 -0.64 0.52 -0.74 0.52 c-0.46 0 -0.46 -0.54 -0.46 -0.62 c0 -0.04 0 -0.04 0.02 -0.1 c0 -2.24 -0.1 -1.9 -0.1 -3.24 c0 0 0.02 -0.02 0.02 -0.04 c0 -0.06 -0.04 -0.16 -0.04 -0.26 c0 -0.18 0.08 -0.3 0.6 -0.3 c0.06 0 0.14 0.06 0.32 0.38 c0 0.1 0.36 0.4 0.4 0.58 c-0.02 0.02 -0.04 0.04 -0.04 0.06 c0 0.08 0.3 0.2 0.3 0.32 c0 0.02 -0.02 0.04 -0.02 0.04 c0 0.12 0.2 0.22 0.2 0.28 c0.24 0.44 0.26 0.42 0.58 0.74 c0.1 0 0.84 1.32 1.4 1.32 c0.72 0.06 0.86 0.32 1.62 0.32 c0.42 0 0.36 -0.02 0.5 -0.1 c-0.04 0.04 -0.02 0.04 -0.04 0.04 c0 0 0.14 -0.2 0.8 -0.2 c0.3 0 0.88 -0.56 1 -0.64 c0.04 -0.04 0.24 -0.12 0.24 -0.16 c0 -0.12 0.42 -0.7 0.48 -0.76 c-0.02 -0.04 -0.02 -0.08 -0.02 -0.1 c0 -0.3 0.32 0.16 0.32 -1.7 c-0.02 -0.06 -0.08 -0.7 -0.22 -0.82 c-0.06 0 -0.06 -0.46 -0.54 -0.78 c0 -0.02 0.02 -0.12 0.02 -0.16 c-0.78 -0.04 -0.38 -0.44 -0.9 -0.44 c-0.98 0 -0.2 -0.3 -1.26 -0.3 c-0.1 -0.1 -0.98 -0.08 -1.18 -0.2 c-0.04 0 -0.18 0.04 -0.22 0.04 c-0.24 0 -0.04 -0.2 -0.58 -0.2 c-1.82 -0.1 -0.84 -0.44 -1.46 -0.44 l0 -0.04 c0.06 0 0.14 -0.02 0.2 0.04 c0 0 0.1 -0.04 0.1 -0.06 c0 0 -0.04 -0.04 -0.04 -0.06 l-0.62 0 c-0.2 -0.18 -0.18 -0.3 -0.34 -0.34 c0 -0.02 -0.22 0.02 -0.56 -0.44 c0 -0.14 -0.44 -0.66 -0.54 -0.74 c-0.18 -0.94 -0.4 -1.5 -0.4 -2.22 c0.04 -0.22 0 -0.5 0.08 -0.64 l0 0.02 c0.02 0 0.1 -0.68 0.16 -0.64 c-0.02 0 -0.04 -0.02 -0.04 -0.04 c0 -0.16 0.42 -0.6 0.42 -0.76 c-0.02 -0.02 -0.02 -0.04 -0.02 -0.04 c0 -0.14 0.32 -0.28 0.32 -0.34 s0.26 -0.48 0.38 -0.56 c-0.02 0.02 -0.02 0.04 -0.02 0.04 c-0.02 0 0.98 -0.66 1 -0.68 c1.22 -0.2 0.16 -0.54 1.52 -0.54 l1.96 0 c0.04 0 0.46 0 0.66 0.16 c0.82 0.04 0.68 0.52 1.04 0.52 c0.66 0 0.48 -0.04 0.68 -0.24 c-0.08 -0.1 0.54 -0.02 0.6 -0.28 l0.26 0 c0.04 0 0.2 0.16 0.22 0.2 c0.06 2.48 0.18 2.42 0.18 3.72 c0 0.1 -0.18 0.16 -0.26 0.32 l-0.28 0 l0 -0.08 c-0.06 0 -0.48 -0.28 -0.48 -0.5 l0 0.02 c-0.02 0 -0.16 -0.5 -0.38 -0.58 l0.02 0 c0 -0.06 -0.26 -0.26 -0.26 -0.4 c-0.3 -0.44 -0.26 -0.42 -0.5 -0.66 l0.02 0 c0 -0.02 -0.5 -0.32 -0.5 -0.46 c0 -0.3 -0.74 -0.66 -0.9 -0.82 c0.06 -0.12 -0.52 -0.28 -1.1 -0.28 c-0.02 0 -0.04 0.02 -0.06 0.02 c-0.2 0 -0.12 -0.34 -0.18 -0.34 c-0.04 0.04 -0.06 0.04 -0.08 0.08 c-0.02 0 -0.1 -0.02 -0.16 -0.04 c-0.12 0.44 -0.32 0.2 -0.38 0.32 c-0.12 -0.06 -0.04 -0.12 -0.12 -0.14 c-0.42 0.2 -0.3 0.18 -1.22 0.64 c-0.6 1.18 -0.28 -0.28 -0.94 1.52 l0 0.88 l0 -0.02 c0.02 0 0.1 0.78 0.28 0.88 c0.04 0.06 0.3 0.26 0.38 0.42 c0.14 0 0.32 0.52 0.9 0.52 c0.24 0.26 1.18 0.2 2.14 0.44 c0.28 0.08 1.74 0.08 2.08 0.48 l-0.02 0 c0 0.04 0.48 0.08 0.56 0.14 c0 -0.04 0.96 0.56 0.96 0.68 c0 0.02 0 0.02 -0.02 0.02 c0.34 0 0.68 0.76 0.82 0.86 c0.1 0.72 0.38 0.5 0.38 1.06 c0.24 0.76 0.2 0.94 0.2 1.88 c-0.06 0.06 -0.1 0.76 -0.2 0.8 c0 1.02 -0.52 0.96 -0.52 1.4 l-0.26 0.24 c0 0.04 -0.02 0.12 -0.02 0.12 c-0.4 0.36 -0.26 0.42 -0.44 0.5 c-0.06 0 -0.16 0.3 -0.5 0.4 c-0.38 0.58 -0.54 0.12 -0.94 0.7 c-1.8 0 0.04 0.44 -1.96 0.44 c-2.28 0 -1.48 -0.06 -2.22 -0.24 c-0.02 0 -0.02 0.02 -0.04 0.02 c-0.12 0 -0.3 -0.16 -0.46 -0.16 c0 -0.02 -0.3 -0.06 -0.3 -0.1 c0 0.02 0.02 0.02 0.02 0.02 c0 -0.02 -0.28 -0.42 -0.5 -0.42 c-0.04 0 -0.08 0.02 -0.12 0.04 z M36.698 20.14 c-0.02 0 -0.02 0.02 -0.02 0.04 c0 0 0 0.02 0.02 0.02 s0.02 -0.02 0.02 -0.02 c0 -0.02 0 -0.04 -0.02 -0.04 z M35.198 20.1 c-0.02 0 -0.02 0.02 -0.02 0.02 c0 0.02 0 0.02 0.02 0.02 s0.02 0 0.02 -0.02 c0 0 0 -0.02 -0.02 -0.02 z M37.098 20.1 c-0.02 0 -0.04 0.02 -0.04 0.04 s0.02 0.04 0.04 0.04 s0.02 -0.02 0.02 -0.04 s0 -0.04 -0.02 -0.04 z M36.658 20.06 c-0.02 0 -0.04 0.02 -0.04 0.04 s0.02 0.04 0.04 0.04 s0.02 -0.02 0.02 -0.04 s0 -0.04 -0.02 -0.04 z M37.098 20.02 c-0.04 0 -0.06 0 -0.06 0.02 l0.02 0.02 l0.04 0 l0 -0.04 z M35.638000000000005 20.02 c-0.02 0 -0.02 0 -0.02 0.02 c0 0 0 0.02 0.02 0.02 s0.02 -0.02 0.02 -0.02 c0 -0.02 0 -0.02 -0.02 -0.02 z M37.098 19.88 l0 0.1 c0.04 -0.02 0.08 -0.06 0.1 -0.1 l-0.1 0 z M37.638000000000005 19.82 c-0.18 0 -0.18 0.06 -0.18 0.12 c0.02 0 0.06 -0.02 0.1 -0.04 c0.02 0 0.08 0.02 0.12 0.04 l0.08 -0.04 s0 -0.08 -0.12 -0.08 z M35.258 19.84 l0 0.04 l0.08 0 l0 -0.04 l-0.08 0 z M36.258 19.84 c-0.02 0 -0.02 0.02 -0.02 0.04 c0 0 0 0.02 0.02 0.02 s0.02 -0.02 0.02 -0.02 c0 -0.02 0 -0.04 -0.02 -0.04 z M36.818000000000005 19.84 c-0.02 0 -0.04 0.02 -0.04 0.04 c0 0 0.02 0.02 0.04 0.02 s0.02 -0.02 0.02 -0.02 c0 -0.02 0 -0.04 -0.02 -0.04 z M34.978 19.72 c-0.02 0 -0.04 0 -0.04 0.02 l0.04 0 l0.02 0 c0 -0.02 0 -0.02 -0.02 -0.02 z M34.358000000000004 19.66 c-0.02 0 -0.04 0 -0.06 0.02 z M34.298 19.58 c-0.02 0 -0.04 0.02 -0.04 0.04 s0.02 0.04 0.04 0.04 s0.02 -0.02 0.02 -0.04 s0 -0.04 -0.02 -0.04 z M34.358000000000004 19.56 c-0.02 0 -0.02 0.02 -0.02 0.04 c0 0 0 0.02 0.02 0.02 s0.02 -0.02 0.02 -0.02 c0 -0.02 0 -0.04 -0.02 -0.04 z M31.498 19.52 c-0.02 0 -0.04 0.02 -0.04 0.04 c0 0 0.02 0.02 0.04 0.02 l0.02 -0.02 c0 -0.02 -0.02 -0.04 -0.02 -0.04 z M34.298 19.52 c-0.02 0 -0.04 0.02 -0.04 0.04 c0 0 0.02 0.02 0.04 0.02 s0.02 -0.02 0.02 -0.02 c0 -0.02 0 -0.04 -0.02 -0.04 z M31.218000000000004 19.46 c-0.02 0 -0.04 0.02 -0.04 0.02 c0 0.02 0.02 0.04 0.04 0.04 c0 0 0.02 -0.02 0.02 -0.04 z M34.458 19.48 l-0.04 0 c0 0.02 0 0.04 0.02 0.04 c0 0 0.02 -0.02 0.02 -0.04 z M38.378 19.46 c-0.02 0 -0.02 0.02 -0.02 0.02 l0.04 0 c0 0.02 0 -0.02 -0.02 -0.02 z M31.218000000000004 19.12 l0 -0.08 l0 0.08 z M39.298 19.08 c-0.02 0 -0.04 0.02 -0.04 0.04 l0.06 0 c0 -0.02 -0.02 -0.04 -0.02 -0.04 z M39.578 18.84 l0 0.04 l0.02 0 z M39.518 18.78 c-0.02 0 -0.04 0.02 -0.04 0.04 c0 0 0.02 0.02 0.04 0.02 s0.02 -0.02 0.02 -0.02 c0 -0.02 0 -0.04 -0.02 -0.04 z M39.638000000000005 18.8 l0.04 -0.02 z M39.758 18.68 l0 0 l-0.04 0.04 c0.02 -0.02 0.02 -0.04 0.04 -0.04 z M31.278000000000002 18.66 c-0.02 0 -0.04 0 -0.04 0.02 c0 0 0.04 0 0.04 -0.02 l0 0 z M31.218000000000004 18.46 l0 0.12 l0.02 0 c0 -0.02 0 -0.1 -0.02 -0.12 z M40.378 18.02 c-0.02 0 -0.02 0.02 -0.02 0.02 s0 0.02 0.02 0.02 s0.02 -0.02 0.02 -0.02 s0 -0.02 -0.02 -0.02 z M39.758 16.38 l0.04 0.02 l0.04 -0.02 l-0.08 0 z M31.218000000000004 16.06 l-0.04 0 c0 0.02 0 0.04 0.02 0.04 c0 0 0.02 -0.02 0.02 -0.04 z M41.178000000000004 15.719999999999999 l0 -0.02 c-0.02 0 -0.02 0 -0.02 0.02 s0 0.04 0.02 0.04 l0 -0.04 z M32.778 12.34 c-0.02 0 -0.04 0.02 -0.04 0.04 s0.02 0.04 0.04 0.04 s0.02 -0.02 0.02 -0.04 s0 -0.04 -0.02 -0.04 z M31.958000000000002 11.48 c-0.02 0 -0.04 0.02 -0.04 0.04 c0 0 0.02 0.02 0.04 0.02 l0.02 -0.02 c0 -0.02 -0.02 -0.04 -0.02 -0.04 z M38.378 11.28 c-0.02 0 -0.02 0.02 -0.02 0.04 c0 0 0 0.02 0.02 0.02 s0.02 -0.02 0.02 -0.02 c0 -0.02 0 -0.04 -0.02 -0.04 z M31.718000000000004 11.2 l0 0.04 l0.04 -0.04 l-0.04 0 z M33.618 11.02 c0 0 -0.02 0 -0.02 0.02 l0.04 0 c0 -0.02 -0.02 -0.02 -0.02 -0.02 z M35.598 10.76 c-0.04 0 -0.14 0.04 -0.14 0.06 s0.02 0.02 0.02 0.02 c0.04 0 0.08 -0.04 0.12 -0.08 z M31.338 10.18 c-0.02 0 -0.04 -0.02 -0.04 0.1 c0 0.02 0.02 0.06 0.02 0.06 c0.02 0 0.04 -0.04 0.04 -0.06 c0 -0.04 -0.02 -0.08 -0.02 -0.1 z M31.278000000000002 9.98 c-0.02 0 -0.04 0.02 -0.04 0.04 s0.02 0.04 0.04 0.04 l0 -0.08 z M39.838 6.460000000000001 c-0.02 0 -0.04 0.02 -0.04 0.04 c0 0 0.02 0.02 0.04 0.02 s0.02 -0.02 0.02 -0.02 c0 -0.02 0 -0.04 -0.02 -0.04 z M40.118 6.460000000000001 c-0.02 0 -0.02 0.02 -0.02 0.04 c0 0 0 0.02 0.02 0.02 s0.02 -0.02 0.02 -0.02 c0 -0.02 0 -0.04 -0.02 -0.04 z M40.198 6.460000000000001 c-0.02 0 -0.04 0.02 -0.04 0.04 c0 0 0.02 0.02 0.04 0.02 l0.02 -0.02 c0 -0.02 -0.02 -0.04 -0.02 -0.04 z M35.718 6.02 l0 -0.22 c0.02 -0.02 0.06 -0.04 0.08 -0.06 l0.04 0.04 c0 0.06 -0.08 0.16 -0.08 0.28 z M40.118 5.9399999999999995 c-0.02 0 -0.02 0.02 -0.02 0.04 c0 0 0 0.02 0.02 0.02 s0.02 -0.02 0.02 -0.02 c0 -0.02 0 -0.04 -0.02 -0.04 z M33.558 5.84 c-0.1 0.02 -0.1 0.1 -0.1 0.1 c0.02 -0.02 0.1 -0.06 0.1 -0.08 l0 -0.02 z M33.078 5.74 c0 0.04 0.06 0.06 0.1 0.06 c-0.02 -0.06 -0.1 -0.06 -0.12 -0.06 l0.02 0 z M40.038000000000004 5.779999999999999 c0.02 0.02 0.04 0.02 0.06 0.02 c0.08 0 0.1 -0.06 0.1 -0.12 z M33.398 5.619999999999999 c-0.06 0 -0.04 0.06 -0.04 0.12 l0.04 0 l0 -0.12 z M37.358000000000004 5.4399999999999995 c-0.06 0.1 -0.04 0.18 -0.04 0.26 c0.08 -0.02 0.1 -0.12 0.1 -0.22 c-0.02 -0.02 -0.02 -0.04 -0.06 -0.04 z M33.398 5.52 c-0.02 0 -0.04 0 -0.04 0.02 l0.04 0 l0.02 0 c0 -0.02 0 -0.02 -0.02 -0.02 z M39.838 5.48 c0 -0.02 -0.02 -0.02 -0.06 -0.02 c-0.02 0 -0.04 0 -0.04 0.02 s0.02 0.04 0.04 0.04 c0.04 0 0.06 -0.02 0.06 -0.04 z M39.918000000000006 5.42 c-0.02 0 -0.04 0.02 -0.04 0.02 l0.02 0 l0.02 0 l0 -0.02 z M37.938 5.42 l-0.02 -0.02 z M36.698 5.4 c0 -0.02 -0.02 -0.02 -0.02 -0.02 s-0.02 0 -0.02 0.02 s0.02 0.02 0.02 0.02 s0.02 0 0.02 -0.02 z M39.418000000000006 5.4 c0 -0.02 -0.02 -0.02 -0.02 -0.02 c-0.02 0 -0.02 0 -0.02 0.02 s0 0.02 0.02 0.02 c0 0 0.02 0 0.02 -0.02 z M39.678000000000004 5.359999999999999 c-0.02 0 -0.04 0.02 -0.04 0.04 c0 0 0.02 0.02 0.04 0.02 s0.02 -0.02 0.02 -0.02 c0 -0.02 0 -0.04 -0.02 -0.04 z M40.118 5.32 l0 0.08 l0.04 -0.04 z M34.038000000000004 5.16 c0 0.06 0.04 0.14 0.04 0.2 l0.04 -0.1 s-0.02 -0.08 -0.04 -0.14 z M37.558 5.24 c-0.02 0 -0.04 0.02 -0.04 0.02 s0.02 0.02 0.04 0.02 s0.02 -0.02 0.02 -0.02 s0 -0.02 -0.02 -0.02 z M39.738 5.119999999999999 c-0.06 0.02 -0.08 0.08 -0.1 0.14 c0.12 0 0.1 -0.06 0.1 -0.14 z M40.118 5.24 l0 0.02 l0.04 0 z M40.118 5.119999999999999 c-0.02 0 -0.02 0.02 -0.02 0.02 c0 0.02 0 0.02 0.02 0.02 s0.02 0 0.02 -0.02 c0 0 0 -0.02 -0.02 -0.02 z M35.938 5.039999999999999 c-0.02 0.06 0.1 0.08 0.1 0.08 c0.04 -0.06 0.24 0.02 0.22 -0.08 l-0.32 0 z M37.198 5.08 l-0.04 0 c0 0.02 0 0.04 0.02 0.04 c0 0 0.02 -0.02 0.02 -0.04 z M34.818000000000005 5 l0 0.04 l0.08 0 l0 -0.04 l-0.08 0 z M35.198 4.960000000000001 c-0.06 0 -0.14 0.06 -0.16 0.08 l0.16 0 l0 -0.08 z M36.698 5 l0 0.04 l0.12 0 z M54.016999999999996 19.98 c-0.12 0 -0.32 -0.06 -0.32 -0.3 c0 -0.28 0.28 -0.2 0.42 -0.28 l1.3 0 c0.22 -0.24 0.2 -0.18 0.2 -0.58 c0 -0.22 -0.04 -1.9 -0.04 -2.12 c0 -1 0.02 -1.82 0.08 -2.64 c0 -0.06 0 -0.06 -0.04 -0.12 l0 -1.08 c-0.1 -0.1 -0.14 -0.34 -0.22 -0.34 c-0.72 0 -0.9 0.04 -1.26 0.04 c-0.08 0 -0.86 -0.04 -1.04 -0.04 l0 -0.04 l-0.28 0 l0.06 0.04 c-0.66 0 -0.58 0.06 -1.18 0.06 c-0.16 0 -0.78 -0.02 -0.98 -0.02 l-0.64 0 l-0.08 0.18 c0 1.06 -0.02 2.34 -0.08 2.76 c0 0.08 0.08 0.16 0.08 0.36 l0 3.36 c0 0.08 0.14 0.2 0.24 0.32 c0.44 0 0.94 -0.12 1.22 -0.12 c0.12 0 0.46 -0.02 0.46 0.36 c-0.04 -0.02 -0.06 -0.06 -0.06 -0.12 c-0.02 0 -0.1 0.08 -0.1 0.22 c0.04 0 0.06 0 0.1 -0.02 c-0.02 0.12 -0.14 0.12 -0.24 0.12 l0 -0.12 c-0.06 0 -0.14 0.08 -0.18 0.12 c-0.52 0 -4.32 0.06 -5.94 0.06 c-0.1 0 -0.24 -0.02 -0.32 -0.16 l0 -0.26 l-0.02 0 c0 -0.02 0.48 -0.22 0.48 -0.22 c0.3 0 0.48 0.1 1.1 0.1 c0.34 0 0.22 -0.14 0.36 -0.2 c0 -1.16 -0.04 -1.36 -0.04 -1.68 c0 -0.94 0.04 -1.28 0.04 -1.7 c0 -0.3 -0.04 -1.02 -0.04 -1.48 c0 -0.04 0.04 -0.28 0.04 -0.32 c0 -0.26 -0.04 -0.56 -0.04 -1.26 l0.04 -0.06 c0 -0.08 -0.04 -0.16 -0.04 -0.24 l0 -3.06 l0.06 -0.04 c0 -0.02 -0.06 -0.1 -0.06 -0.26 l0 -3.38 s-0.06 -0.04 -0.06 -0.08 c0 -0.2 -0.78 -0.18 -0.92 -0.2 c-0.02 0 -0.28 0.04 -0.38 0.04 c-0.42 0 -0.54 -0.08 -0.6 -0.22 c0 -0.16 -0.1 -0.36 0.38 -0.44 l6.22 0 c0.02 0.02 0.22 0 0.22 0.32 c0 0.16 -0.26 0.38 -0.34 0.38 l-0.04 0.02 s0.02 0 0.02 -0.02 c0 0 -0.08 -0.08 -0.6 -0.08 l-0.68 0 c-0.36 0 -0.36 0.94 -0.36 0.98 c0 0.06 0.04 0.16 0.04 0.28 c-0.04 0.12 -0.04 0.2 -0.04 0.28 c0 0.24 0.04 0.34 0.04 0.5 c-0.04 0.06 -0.04 0.12 -0.04 0.14 c0 0.08 0.04 0.16 0.04 0.22 l0 2.48 c0 0.1 -0.06 0.36 -0.06 0.36 c0 0.1 0.06 0.34 0.06 0.44 c-0.04 0.06 -0.04 0.08 -0.04 0.1 s0.06 -0.02 0.06 0.02 c0 0.08 -0.08 0.22 -0.08 0.36 c0 0.16 0.1 0.32 0.46 0.32 c1.18 0 2.06 -0.08 3.06 -0.08 c0 0 0.12 0.02 0.14 0.02 l1.2 0 c0.06 0 0.14 0.06 0.26 0.06 c0.18 0 0.56 -0.06 0.56 -0.36 c0 -1.26 -0.04 -1.42 -0.04 -2.06 c0 -0.12 0.04 -0.3 0.04 -0.5 c0 -0.6 -0.04 -1 -0.04 -1.44 l0.02 -0.14 s-0.02 -0.16 -0.02 -0.22 c0 -0.36 0.02 -0.5 0.02 -1.06 l-0.02 0.02 c-0.02 -0.06 0.12 -0.74 -0.3 -0.74 c-0.04 0 -0.1 0.02 -0.14 0.02 c-0.2 0 -0.56 -0.04 -0.54 -0.04 c-0.14 0 -0.26 0.04 -0.36 0.04 c-0.56 0 -0.6 -0.3 -0.6 -0.3 c0 -0.2 0.34 -0.4 0.9 -0.4 c0.02 0.02 -0.02 -0.02 0.22 0.04 c0.34 0 0.34 0.02 0.38 -0.04 c0.24 0 0.46 0.06 0.7 0.06 c0.04 0 0.08 -0.02 0.14 -0.06 c0.04 0 0.14 0.04 0.18 0.04 l1.72 0 c0.08 0 0.28 -0.04 0.36 -0.06 c0.04 0 0.04 0.06 0.04 0.06 l0.96 0 l0.06 -0.04 c0.3 0.08 0.76 0.04 0.94 0.08 l0.12 0.12 c0 0.3 0.04 0.66 -0.64 0.66 c0 -0.12 -1.16 -0.16 -1.16 -0.16 l0 0 c0 0.02 0.02 -0.04 -0.02 -0.04 c-0.06 0 -0.1 0.24 -0.18 1.8 c0 0.08 0.04 0.12 0.04 0.24 c0 0.06 0 0.1 -0.04 0.14 c0 0.02 0.04 0.1 0.04 0.14 l0.04 1.08 l0 8.12 c0 0.04 0.04 0.26 0.04 0.28 c0 0.06 -0.04 0.14 -0.04 0.4 c0 0.08 0 0.44 0.04 0.54 l0 0.1 c0 1 0.1 1.08 0.48 1.08 c0.1 0 0.22 -0.02 0.34 -0.02 c0.06 0 0.16 0.02 0.26 0.02 c0.12 0 0.24 -0.02 0.3 -0.08 c0.48 0.1 0.54 0.2 0.54 0.48 c0 0.12 -0.06 0.3 -0.52 0.3 c-0.68 0 -3.36 -0.14 -5.82 -0.14 z M45.336999999999996 19.92 l-0.02 -0.04 z M46.077 19.88 l0 0.04 l0.32 0 c0 -0.1 -0.1 -0.16 -0.16 -0.16 c-0.06 0.06 -0.12 0.14 -0.16 0.12 z M51.376999999999995 19.88 l0.06 0.04 c-0.02 0 -0.04 -0.02 -0.06 -0.04 z M55.397 19.88 l0 0.04 l0.02 -0.04 l-0.02 0 z M50.817 19.76 c0 0.14 0.06 0.12 0.08 0.16 l0 -0.18 c-0.04 0 -0.06 0 -0.08 0.02 z M54.777 19.86 l0 0.02 l0.04 0 z M55.537 19.86 l0 0.02 l0.02 0 z M54.317 19.78 l0 0.08 c0.02 -0.02 0.04 -0.04 0.04 -0.08 l-0.04 0 z M46.597 19.74 c0.1 0 0.16 0.02 0.26 0.08 c-0.04 0 0.1 0 0.1 -0.04 s-0.2 -0.1 -0.36 -0.12 l0 0.08 z M53.817 19.62 l-0.04 0.12 l0.04 0 l0 -0.12 z M45.376999999999995 19.58 c-0.02 0 -0.04 0.02 -0.04 0.04 s0.02 0.04 0.04 0.04 s0.02 -0.02 0.02 -0.04 s0 -0.04 -0.02 -0.04 z M56.117 19.58 l-0.04 0 c0 0.02 0 0.04 0.02 0.04 c0 0 0.02 -0.02 0.02 -0.04 z M47.457 13.96 c-0.02 0 -0.04 0.02 -0.04 0.04 c0 0 0.02 0.02 0.04 0.02 l0.02 -0.02 c0 -0.02 -0.02 -0.04 -0.02 -0.04 z M49.336999999999996 12.86 c-0.04 0 -0.06 0 -0.06 0.04 l0.06 0 l0 -0.04 z M47.217 11.5 c-0.02 0 -0.04 0.02 -0.04 0.04 s0.02 0.04 0.04 0.04 s0.02 -0.02 0.02 -0.04 s0 -0.04 -0.02 -0.04 z M47.137 9.5 l0.02 0 l-0.04 0 s-0.02 0 0.02 0 z M49.097 9.42 c0 0.02 -0.02 0.02 -0.02 0.04 s0.02 0.02 0.04 0.04 l0.02 -0.08 l-0.04 0 z M47.217 8 l0 0.04 l0.02 0.02 c0.02 0 0.04 -0.02 0.06 -0.06 l-0.08 0 z M47.177 7.66 l0.04 0.02 l0.04 -0.02 l-0.08 0 z M55.997 7.539999999999999 c-0.02 0 -0.02 0.02 -0.02 0.04 s0 0.04 0.02 0.04 s0.02 -0.02 0.02 -0.04 s0 -0.04 -0.02 -0.04 z M46.577 5.359999999999999 c0 0.02 0 0.04 0.02 0.06 c0.04 -0.02 0.04 -0.06 0.04 -0.08 c-0.04 0 -0.06 0.02 -0.06 0.02 z M58.277 5.359999999999999 l0 0.02 l0.02 0 c0 -0.02 0 -0.02 -0.02 -0.02 z M55.777 5.359999999999999 l-0.08 -0.02 z M59.037 5.34 c-0.02 0 -0.04 0.02 -0.04 0.02 s0.02 0.02 0.04 0.02 l0.02 -0.02 z M45.417 5.1 c-0.16 0 -0.16 0.08 -0.16 0.24 c0 0 0.16 0 0.16 -0.24 z M60.097 5.140000000000001 l0 0.16 l0.1 0 c0 -0.14 -0.12 -0.16 -0.1 -0.16 z M46.757 5.24 c0 0 -0.02 0.02 -0.02 0.04 l0.02 0.02 c0.02 0 0.02 -0.02 0.02 -0.02 c0 -0.02 0 -0.04 -0.02 -0.04 z M50.357 5.140000000000001 c0.02 0.04 0.04 0.08 0.04 0.12 c0.1 0 0.08 0 0.12 -0.02 c0 -0.08 -0.06 -0.1 -0.1 -0.1 l-0.06 0 z M55.037 5.18 c0 0 -0.02 0 -0.02 0.02 s0.02 0.04 0.02 0.04 c0.02 0 0.02 -0.02 0.02 -0.04 s0 -0.02 -0.02 -0.02 z M59.777 5 c0 0.02 0 0.18 0.1 0.24 c0 -0.04 0.02 -0.14 0.02 -0.24 l-0.12 0 z M53.817 5.08 l0 0.1 c0.04 -0.02 0.04 -0.06 0.04 -0.1 l-0.04 0 z M56.617 5.140000000000001 c-0.02 0 -0.02 0.02 -0.02 0.02 c0 0.02 0 0.02 0.02 0.02 s0.02 0 0.02 -0.02 c0 0 0 -0.02 -0.02 -0.02 z M57.736999999999995 5.1 l-0.02 0.02 c0 0.02 0.02 0.02 0.02 0.02 c0.02 0 0.02 0 0.02 -0.02 c0 0 0 -0.02 -0.02 -0.02 z M46.757 5.08 c0 0 -0.02 0.02 -0.02 0.04 l0.02 0.02 c0.02 0 0.02 -0.02 0.02 -0.02 c0 -0.02 0 -0.04 -0.02 -0.04 z M51.177 5.1 l-0.02 -0.02 c-0.02 0 -0.02 0.02 -0.02 0.02 c0 0.02 0 0.04 0.02 0.04 c0 0 0.02 -0.02 0.02 -0.04 z M50.357 5.039999999999999 c-0.02 0 -0.04 0.02 -0.04 0.04 c0 0 0.02 0.02 0.04 0.02 l0 -0.06 z M55.777 5.039999999999999 c-0.02 0 -0.02 0.02 -0.02 0.04 c0 0 0 0.02 0.02 0.02 s0.02 -0.02 0.02 -0.02 c0 -0.02 0 -0.04 -0.02 -0.04 z M59.497 5.08 c0 -0.02 -0.02 -0.02 -0.04 -0.02 s-0.04 0 -0.04 0.02 s0.02 0.02 0.04 0.02 s0.04 0 0.04 -0.02 z M68.536 19.86 c0 -0.12 0.06 -0.16 0.06 -0.18 c-0.08 0 -0.08 0 -0.12 0.02 c-0.16 0 -0.44 -0.16 -0.56 -0.16 c-1.02 -0.82 -1.14 -1.18 -1.34 -1.52 c0 -0.26 -0.26 -0.36 -0.26 -0.98 c-0.1 -1.62 -0.22 -3.18 -0.22 -4.54 c0 -1.28 0.02 -1.76 0.02 -2.32 c0 -0.16 -0.02 -2.74 -0.02 -4.36 l-0.12 -0.18 l-0.32 0 c-0.04 -0.18 -0.08 -0.42 -0.28 -0.42 c-0.16 0 -0.14 0.06 -0.14 0.18 c0.04 0 0.18 -0.06 0.2 -0.08 l0.04 0.04 l0 0.22 c-0.04 0.02 -0.06 0.02 -0.08 0.02 c-0.06 0 -0.16 -0.02 -0.18 -0.02 l0.02 0.02 l-0.04 0.04 c-0.28 0 -0.66 0.06 -0.78 0.06 c-0.4 -0.12 -0.36 -0.2 -0.36 -0.46 c0.08 -0.02 0.14 -0.32 0.48 -0.32 c0.1 -0.02 0.46 0.06 0.5 0.06 c0.06 0 0.12 -0.02 0.18 -0.06 l1.1 0 c0.02 0.02 0.02 0.06 0.04 0.06 c0.06 0 0.22 -0.06 0.34 -0.06 c0.18 0 0.3 0.02 0.34 0.04 l0.9 0 l0.04 -0.04 l1.06 0 l0.08 0.04 c0.04 -0.04 0.08 -0.04 0.12 -0.04 c0.24 0 0.3 0.04 0.38 0.04 c0.04 0 0.12 -0.04 0.12 -0.04 l0.98 0 c0.18 0 0.3 0.2 0.36 0.3 c0 0 -0.02 0.3 -0.04 0.32 l-0.2 0.1 c-0.92 0 -0.84 -0.06 -1.46 -0.06 c-0.18 0 -0.34 0.1 -0.34 0.76 c0 0.28 0.04 0.34 0.04 0.4 l0 0 s-0.04 0.4 -0.04 0.66 c0 0.12 -0.02 0.42 0.04 0.46 c-0.02 0.32 0.02 0.26 -0.04 0.32 c0 0.06 0.04 0.1 0.04 0.16 l0 1.44 c0 0.08 -0.06 0.22 -0.06 0.24 s0.02 0.06 0.06 0.12 l0 0.68 l-0.04 0.06 c0 0.38 0.04 0.46 0.04 0.68 l0 2.04 c-0.04 0.06 -0.04 0.1 -0.04 0.14 c0 0.32 0.04 0.36 0.04 0.48 c-0.02 0.08 -0.04 0.16 -0.04 0.22 c0 0.04 0 0.1 0.04 0.18 l0 1.9 c0 1.4 0.4 1.48 0.4 1.7 c-0.02 0.02 -0.04 0.04 -0.04 0.06 c0 0.12 0.36 0.3 0.38 0.52 c0 -0.02 0.44 0.52 0.78 0.52 c-0.04 0 0.58 0.32 1.16 0.32 c0.76 0 0.86 -0.02 1.06 -0.02 s0.96 0 1.06 -0.14 l0 0.02 c0.02 0 0.08 -0.22 0.3 -0.22 c0.78 0 1.52 -1.44 1.68 -1.6 c0 -1.2 0.32 -1.64 0.32 -2.28 c0 -1.08 -0.1 -3.76 -0.1 -4.06 c0 -0.04 0.06 -0.1 0.06 -0.18 l0 -1.68 c-0.02 -0.04 -0.06 -0.1 -0.06 -0.1 c0 -0.04 0.02 -0.06 0.06 -0.1 c0 -0.9 -0.06 -0.82 -0.06 -1.1 c0 -0.04 0.06 -0.1 0.06 -0.16 l0 -2.08 c0 -0.1 -0.04 -0.24 -0.2 -0.34 c-1.68 0 -1.04 0.06 -1.5 0.06 c-0.24 0 -0.34 -0.06 -0.34 -0.44 c0.14 -0.18 -0.3 -0.32 1.58 -0.32 c0.1 0 0.78 0.02 0.82 0.02 c0.04 0.02 0.16 0.06 0.14 0.06 c0.02 0 0.06 -0.02 0.14 -0.06 c0.02 0 1.44 -0.06 1.6 -0.06 c0.14 0 0.5 0 0.5 0.36 c0 0.48 -0.14 0.42 -0.3 0.42 c-0.08 0 -0.42 -0.02 -0.36 -0.1 l0.14 0 c-0.04 0 -0.04 -0.04 -0.08 -0.04 c-0.06 0 -0.26 0.1 -0.44 0.1 c-0.14 0 -0.28 -0.02 -0.42 -0.02 c-0.2 0 -0.58 0.04 -0.58 0.32 c0 0.3 0.1 1.78 0.1 3.42 c0 0.04 0 0.04 -0.02 0.08 l0 5 c-0.02 2.56 -0.4 3.12 -0.4 3.38 c0 0.68 -0.46 0.58 -0.46 0.76 c0.02 0.02 0.02 0.06 0.02 0.08 c0 0.14 -0.26 0.26 -0.36 0.38 c0 -0.06 0 -0.16 -0.16 -0.16 c-0.04 0 -0.12 0.04 -0.14 0.06 c0.26 0 0.1 0.18 0.24 0.18 c0 0.08 -0.28 0.2 -0.36 0.2 l0.02 0.04 c-0.02 0 -0.02 -0.02 -0.02 -0.02 c-0.02 0.06 0.08 0.34 -0.38 0.34 c-0.38 0 -0.32 0.16 -0.36 0.2 l0.06 0.02 c0 0.02 -0.2 0.16 -0.48 0.16 c-0.02 0 -0.02 -0.02 -0.04 -0.04 c-0.2 0 -0.14 0.2 -0.4 0.2 c-0.36 0.1 -0.92 0.2 -1.64 0.2 c-2.32 0 -3.52 -0.46 -3.52 -0.52 z M72.096 20.02 l0 0.04 c0.06 0.02 0 0.26 0.06 0.26 s0.14 0 0.14 -0.04 c0 -0.08 -0.08 -0.16 -0.08 -0.22 c0 -0.02 0 -0.02 0.02 -0.04 l-0.14 0 z M72.016 20.26 l0 0.04 l0.06 0 l-0.02 -0.04 l-0.04 0 z M72.656 20.14 c-0.04 0 -0.04 0.04 -0.04 0.08 l0.06 0 c0 -0.02 -0.02 -0.06 -0.02 -0.08 z M72.616 20.06 l-0.02 0.02 c0 0.02 0.02 0.02 0.02 0.02 c0.02 0 0.02 0 0.02 -0.02 c0 0 0 -0.02 -0.02 -0.02 z M71.616 19.98 c-0.02 0 -0.04 0 -0.06 0.02 l0.1 0 z M72.016 19.98 l0 0.02 l0.04 0 z M71.71600000000001 19.94 c0 0 -0.02 0.02 -0.02 0.04 l0.02 0.02 c0.02 0 0.02 -0.02 0.02 -0.02 c0 -0.02 0 -0.04 -0.02 -0.04 z M71.276 19.9 l0 0.04 l0.06 0 l-0.02 -0.04 l-0.04 0 z M72.396 19.9 c-0.02 0 -0.02 0.02 -0.02 0.04 s0 0.04 0.02 0.04 s0.02 -0.02 0.02 -0.04 s0 -0.04 -0.02 -0.04 z M74.236 19.58 c-0.2 0 -0.18 0.16 -0.18 0.26 c0.14 -0.28 0.16 -0.16 0.2 -0.26 l-0.02 0 z M73.696 19.7 c-0.02 0 -0.04 0.02 -0.04 0.04 s0.02 0.04 0.04 0.04 l0 -0.08 z M74.99600000000001 19.48 c-0.02 0 -0.04 0.02 -0.04 0.04 c0 0 0.02 0.02 0.04 0.02 s0.02 -0.02 0.02 -0.02 c0 -0.02 0 -0.04 -0.02 -0.04 z M74.836 19.24 c-0.08 0 -0.06 0 -0.08 0.02 c0.16 0 0.1 0 0.16 -0.02 l-0.08 0 z M75.296 19.2 c-0.02 0 -0.02 0.02 -0.02 0.04 c0 0 0 0.02 0.02 0.02 s0.02 -0.02 0.02 -0.02 c0 -0.02 0 -0.04 -0.02 -0.04 z M69.756 19.12 c-0.02 0 -0.02 0.02 -0.02 0.04 s0 0.04 0.02 0.04 c0 0 0.02 -0.02 0.02 -0.04 s-0.02 -0.04 -0.02 -0.04 z M75.416 19 c-0.02 0 -0.02 0.02 -0.02 0.04 s0 0.04 0.02 0.04 s0.02 -0.02 0.02 -0.04 s0 -0.04 -0.02 -0.04 z M75.896 18.64 c-0.04 0 -0.12 0.1 -0.12 0.14 c0.16 0 0.08 -0.1 0.16 -0.14 l-0.04 0 z M67.316 18.54 l0.02 0.04 l0 -0.06 z M76.016 18.42 l-0.04 0.1 l0.08 -0.06 c-0.02 -0.02 -0.02 -0.04 -0.04 -0.04 z M66.796 18.06 c-0.02 0 -0.04 0.02 -0.04 0.04 s0.02 0.04 0.04 0.04 s0.02 -0.02 0.02 -0.04 s0 -0.04 -0.02 -0.04 z M75.936 17.82 l-0.02 0.02 c0 0.02 0.02 0.02 0.06 0.02 c0.06 0 0.06 -0.1 0.06 -0.12 c-0.12 0 -0.1 0.1 -0.1 0.08 z M76.416 17.740000000000002 l-0.02 -0.02 z M76.416 17.12 c-0.04 0.1 -0.02 0.14 -0.02 0.14 c0.02 -0.02 0.02 0.02 0.02 -0.14 z M66.416 17 c-0.02 0 -0.04 0.02 -0.04 0.02 c0 0.02 0.02 0.02 0.04 0.02 c0 0 0.02 0 0.02 -0.02 z M76.556 16.88 c0.02 0.04 0.04 0.04 0.08 0.04 c0 -0.02 -0.02 -0.08 -0.02 -0.12 c-0.04 0 -0.04 0.04 -0.06 0.08 z M66.376 16.64 c0 0.1 0.06 0.2 0.06 0.2 l0 -0.2 l-0.06 0 z M76.57600000000001 16.38 c-0.14 0 -0.04 0.18 -0.12 0.2 c0.12 0 0.14 -0.02 0.18 -0.02 c0 -0.06 -0.06 -0.1 -0.06 -0.18 z M76.336 16.22 c0.04 0.02 0.06 0.04 0.06 0.08 l0.02 -0.04 c0 -0.04 0 -0.04 -0.02 -0.06 z M66.756 16.18 c0 -0.02 -0.02 -0.02 -0.02 -0.02 c-0.02 0 -0.02 0 -0.02 0.02 s0 0.02 0.02 0.02 c0 0 0.02 0 0.02 -0.02 z M76.71600000000001 15.74 l-0.04 0.04 l0.04 0 l0 -0.04 z M76.336 14.68 c-0.02 0 -0.04 0.02 -0.04 0.04 s0.02 0.04 0.04 0.04 c0 0 0.02 -0.02 0.02 -0.04 s-0.02 -0.04 -0.02 -0.04 z M76.396 14.219999999999999 c-0.02 0 -0.04 0 -0.04 0.02 c0 0 0.02 0.02 0.04 0.02 l0 -0.04 z M76.396 14.04 c-0.02 0 -0.04 0.02 -0.04 0.04 c0 0 0.02 0.02 0.04 0.02 l0 -0.06 z M76.71600000000001 14.04 c-0.02 0 -0.04 0 -0.04 0.02 l0.04 0 l0.02 0 c0 -0.02 0 -0.02 -0.02 -0.02 z M76.336 13.98 c0 0.06 0 0.06 0.02 0.06 l0.04 -0.02 l-0.06 -0.04 l0 0 z M66.336 13.780000000000001 c-0.02 0 -0.02 0.02 -0.02 0.04 s0 0.04 0.02 0.04 s0.02 -0.02 0.02 -0.04 s0 -0.04 -0.02 -0.04 z M76.71600000000001 13.5 l0 0.06 l0.04 0 c0 -0.04 -0.02 -0.06 -0.04 -0.06 z M66.336 9.7 l0 0.02 l0.1 0 c-0.04 -0.04 -0.08 -0.02 -0.1 -0.02 z M76.71600000000001 9.48 c0 0.04 -0.02 0.16 0.04 0.16 l0 0.08 z M76.71600000000001 8.64 l-0.04 0 c0 0.02 0.02 0.02 0.04 0.02 s0.02 0 0.02 -0.02 l-0.02 0 z M64.256 5.539999999999999 c0.02 0.04 0.08 0.04 0.12 0.06 l0.04 -0.02 c-0.02 -0.04 -0.06 -0.04 -0.16 -0.04 z M64.836 5.6 c0 -0.02 -0.02 -0.02 -0.02 -0.02 c-0.02 0 -0.02 0 -0.02 0.02 s0 0.04 0.02 0.04 c0 0 0.02 -0.02 0.02 -0.04 z M65.956 5.58 c0 0 -0.02 0 -0.02 0.02 s0.02 0.04 0.02 0.04 s0.02 -0.02 0.02 -0.04 s-0.02 -0.02 -0.02 -0.02 z M64.516 5.539999999999999 l0.02 0.04 c0.12 0 0.1 -0.04 0.1 -0.1 z M70.136 5.52 l0 0.02 l0.16 0 c-0.06 -0.02 -0.14 -0.02 -0.16 -0.02 z M74.456 5.52 c-0.02 0 -0.04 0 -0.04 0.02 l0.04 0 l0.02 0 c0 -0.02 0 -0.02 -0.02 -0.02 z M76.036 5.48 l0 0.04 s0 0.02 0.02 0.02 c0 0 0.02 -0.02 0.04 -0.06 l-0.06 0 z M77.296 5.4399999999999995 c0.02 0.1 0.06 0.08 0.22 0.08 c-0.06 0 -0.1 -0.08 -0.16 -0.14 c-0.04 0 -0.08 0.02 -0.08 0.04 z M74.296 5.279999999999999 l0 0.2 l0.04 0 c0.02 -0.02 -0.04 -0.12 -0.04 -0.2 z M78.556 5.08 c0 0.18 0.18 0.18 0.18 0.32 l0.06 0 c0 -0.16 -0.14 -0.18 -0.18 -0.36 c-0.06 0 -0.06 0.02 -0.06 0.04 z M76.396 5.24 c0 0.06 0.04 0.1 0.1 0.12 l0.08 -0.08 c0.24 0 0.12 0.04 0.32 0.04 c0.06 0 0.14 -0.02 0.14 -0.1 c-0.02 0 -0.2 0.02 -0.26 0.02 c-0.04 0 -0.08 -0.02 -0.1 -0.02 s-0.06 0 -0.12 0.02 l-0.1 -0.02 z M65.656 5.279999999999999 c-0.02 0 -0.02 0.02 -0.02 0.04 s0 0.04 0.02 0.04 s0.02 -0.02 0.02 -0.04 s0 -0.04 -0.02 -0.04 z M66.276 5.24 l0 0.04 l0.06 0 l0 -0.04 l-0.06 0 z M77.936 5.279999999999999 l-0.04 0 l0.04 0 z M65.156 5.24 l-0.04 -0.02 l0.04 0.06 l0 -0.04 z M69.656 5.220000000000001 c-0.02 0 -0.04 0 -0.04 0.02 s0.02 0.04 0.04 0.04 s0.02 -0.02 0.02 -0.04 s0 -0.02 -0.02 -0.02 z M70.376 5.199999999999999 l0 0.02 l0.02 0 z M70.49600000000001 5.220000000000001 l-0.02 -0.02 c-0.02 0 -0.02 0.02 -0.02 0.02 s0 0.02 0.02 0.02 z M75.656 5.220000000000001 l-0.02 -0.02 c-0.02 0 -0.02 0.02 -0.02 0.02 s0 0.02 0.02 0.02 z M77.316 5.199999999999999 l0 0.02 l0.08 0 c-0.06 -0.02 -0.08 -0.02 -0.08 -0.02 z M64.416 5.199999999999999 c0 -0.02 -0.04 -0.02 -0.08 -0.02 c-0.02 0 -0.04 0 -0.04 0.02 c0 0 0.02 0.02 0.04 0.02 s0.06 0 0.08 -0.02 z M70.816 5.16 c-0.04 0 -0.08 0 -0.1 0.04 l0.1 0 l0 -0.04 z M74.416 5.16 c0 0 -0.02 0.02 -0.02 0.04 l0.02 0.02 c0.02 0 0.02 -0.02 0.02 -0.02 c0 -0.02 0 -0.04 -0.02 -0.04 z M74.49600000000001 5.16 l0 0.04 c0.02 0 0.04 -0.02 0.06 -0.04 l-0.06 0 z M80.675 20.08 c-0.22 0 -0.22 0.02 -0.36 0.02 c-0.04 0 -0.22 -0.16 -0.28 -0.22 c0 0 0.04 -0.3 0.04 -0.36 c0.72 -0.06 1.24 -0.08 1.8 -0.14 c0.06 0 0 -0.38 0.22 -0.38 l0 -0.32 c0.02 0.02 0.04 0.02 0.04 0.02 c0.12 0 0.1 -0.56 0.26 -0.6 c0 -0.04 0.08 -0.72 0.28 -0.88 l0.1 -0.38 s0.68 -2.32 0.94 -2.32 c0.02 0 0.06 0.02 0.08 0.02 c0.1 0 0.12 -0.04 0.12 -0.08 c0 -0.18 -0.16 -0.1 -0.16 -0.24 c0 -0.36 0.36 -1.04 0.4 -1.08 c0.02 -0.82 0.32 -0.62 0.32 -1.14 l0 0.02 c0.02 0 0.18 -0.5 0.26 -0.56 c0 0.04 0.02 0.04 0.02 0.04 s-0.02 0 -0.02 -0.02 c0 -0.12 0.4 -0.94 0.4 -1.16 c0.1 0 0.12 -0.02 0.12 -0.06 s-0.02 -0.08 -0.02 -0.14 c0 -0.12 0.04 -0.24 0.18 -0.4 l0 0.02 c0.04 0 0.02 -0.44 0.18 -0.44 l0.08 -0.38 l0.12 -0.1 l0 -0.32 l0.16 -0.12 l0 -0.34 s0.12 -0.04 0.12 -0.08 c-0.02 0 -0.04 -0.04 -0.04 -0.06 c0 -0.26 0.5 -1.02 0.5 -1.54 l0.1 -0.08 l0 -0.32 c0 0.02 0.02 0.02 0.02 0.02 c0.28 0 -0.1 -1.16 0.94 -1.16 c0.08 0 0.44 0.22 0.44 0.52 c0.08 0.08 -0.08 0.28 0.28 0.94 c0.02 0 0.5 1.3 0.5 1.64 c0.18 0 0.06 0.4 0.52 1.36 c0.12 0.54 0.34 0.52 0.34 0.76 l0 -0.02 s0.1 0.64 0.18 0.64 l-0.02 0 c0 0.08 0.48 0.6 0.48 1.22 c0.12 0.58 0.32 0.34 0.32 0.84 l-0.02 -0.02 c0 0.04 0.32 0.46 0.32 0.72 c-0.02 0 -0.04 0 -0.04 0.02 c0 0.08 0.22 0.36 0.22 0.46 c0 0.02 -0.02 0.02 -0.02 0.04 c0 0.04 0.2 0.2 0.2 0.56 c0.08 0.7 0.42 0.74 0.42 1.18 c-0.02 0.04 -0.04 0.06 -0.04 0.08 c0 0.1 0.32 0.1 0.32 0.56 c0 1.14 0.78 1.4 0.78 2.2 c0.08 0.64 0.46 0.86 0.52 0.9 l1.3 0 c0.08 0 0.2 0.06 0.26 0.1 l0 0.36 c-0.08 0.04 -0.14 0.12 -0.46 0.12 c-0.04 0 -1 -0.04 -1.4 -0.04 c-0.18 0 -0.34 0.04 -0.5 0.04 c-0.02 0 -0.34 -0.04 -0.38 -0.04 c-1.08 0 -1.76 0.06 -2.18 0.06 c-0.02 0 -0.02 -0.06 -0.34 -0.06 c-0.16 0 -0.2 0 -0.28 0.04 c-0.1 0 -0.18 -0.04 -0.22 -0.1 c-0.04 0 -0.12 0.02 -0.12 0.02 l0.04 0.04 l-0.04 0.04 c-0.66 0 -0.72 0 -0.86 -0.12 l0.04 -0.34 c0 -0.04 0.14 -0.12 0.22 -0.12 l1.5 0 c0.02 0.02 0.16 -0.1 0.16 -0.2 c0 -0.04 -0.32 -0.46 -0.32 -0.7 c0.04 -0.02 0.04 -0.02 0.04 -0.06 c0 -0.1 -0.34 -0.36 -0.34 -0.88 c0.02 0 0.02 0 0.02 -0.02 c0 -0.04 -0.22 -0.2 -0.22 -0.36 c0 -0.72 -0.32 -0.72 -0.32 -1.26 l0 0.02 c-0.04 0 -0.22 -0.5 -0.4 -0.5 c-1.34 0 -2.76 0.04 -4.38 0.04 c0 0.08 -0.16 0.12 -0.16 0.34 c-0.3 0.66 -0.34 0.56 -0.34 0.88 c-0.24 0.16 0.02 0.28 -0.26 0.62 c-0.16 1.1 -0.38 0.48 -0.38 1.22 l0 -0.02 c-0.04 0 -0.22 0.52 -0.24 0.52 c0 0.32 0.08 0.32 0.2 0.4 l1.6 0 c0.1 0 0.3 0.02 0.3 0.26 s-0.06 0.36 -0.42 0.36 c-0.06 0 -0.14 -0.04 -0.24 -0.04 c-0.22 0 -0.3 0.04 -0.4 0.04 c-0.04 0 -0.14 -0.04 -0.16 -0.04 l-1.42 0 c-0.04 0.04 -0.08 0.04 -0.12 0.04 c-0.06 0 -0.16 -0.02 -0.24 -0.08 c0 0 0.04 -0.04 0.04 -0.08 l-0.06 0 c-0.04 0 -0.06 0 -0.06 0.04 l0.02 0.04 c-0.02 0.08 -0.04 0.08 -0.16 0.08 c0 -0.26 0 -0.2 0.06 -0.28 c-0.02 -0.08 0.02 -0.18 -0.04 -0.22 c0 0.14 -0.06 0.24 -0.18 0.32 c0 0.04 0.06 0.08 0.1 0.1 c-0.08 0 -0.3 0.1 -0.34 0.16 c-0.36 0 -0.32 -0.08 -0.54 -0.08 z M80.515 19.92 l0 0.04 l0.1 0 c-0.06 -0.04 -0.08 -0.04 -0.1 -0.04 z M80.855 19.96 c0 -0.02 -0.02 -0.02 -0.04 -0.02 s-0.04 0 -0.04 0.02 s0.02 0.04 0.04 0.04 s0.04 -0.02 0.04 -0.04 z M80.97500000000001 19.92 c-0.02 0 -0.04 0.02 -0.04 0.04 s0.02 0.04 0.04 0.04 s0.02 -0.02 0.02 -0.04 s0 -0.04 -0.02 -0.04 z M81.415 19.88 c-0.12 0 -0.28 0.04 -0.32 0.08 c0.34 0 0.24 -0.02 0.32 -0.08 z M82.075 19.9 c0 0.02 0.16 0.04 0.18 0.06 l0.04 -0.04 c-0.1 -0.02 -0.2 -0.02 -0.22 -0.02 z M83.555 19.92 c0.26 0 0.66 0.04 0.76 0.04 c-0.22 0 -0.22 -0.22 -0.24 -0.32 c0.02 0 -0.16 0.04 -0.16 0.16 c-0.04 0 -0.02 -0.12 -0.18 -0.12 c0 0.14 -0.08 0.18 -0.18 0.24 z M84.47500000000001 19.92 l0.04 0.04 c0.02 0 0.14 -0.04 0.18 -0.04 l-0.22 0 z M81.715 19.9 c-0.02 0 -0.04 0.02 -0.04 0.04 c0 0 0.02 0.02 0.04 0.02 s0.02 -0.02 0.02 -0.02 c0 -0.02 0 -0.04 -0.02 -0.04 z M83.295 19.92 c0 0 -0.04 -0.02 -0.06 -0.02 c-0.04 0 -0.04 0.02 -0.04 0.02 c0 0.02 0 0.04 0.04 0.04 c0.02 0 0.06 -0.02 0.06 -0.04 z M88.215 19.88 c0.02 0.02 0.08 0.04 0.1 0.04 s0.12 -0.02 0.16 -0.04 l0 -0.24 s-0.04 -0.02 -0.06 -0.02 c-0.18 0 -0.2 0.04 -0.2 0.12 l0 0.14 z M93.635 19.9 c0.06 0 0.08 0.02 0.18 0.02 c0.02 0 0.12 -0.02 0.18 -0.02 l-0.36 0 z M94.595 19.9 l0 0.02 l0.02 -0.02 l-0.02 0 z M88.775 19.88 l-0.04 0.02 l0.06 0.02 z M90.275 19.88 c-0.02 0 -0.04 0.02 -0.04 0.02 s0.02 0.02 0.04 0.02 s0.02 -0.02 0.02 -0.02 s0 -0.02 -0.02 -0.02 z M93.015 19.88 c0.02 0.02 0.04 0.02 0.1 0.02 l0.38 0 c-0.02 -0.02 -0.06 -0.04 -0.1 -0.06 c-0.04 0.04 -0.1 0.04 -0.12 0.04 c-0.18 0 -0.14 -0.14 -0.18 -0.14 z M80.19500000000001 19.74 c0 0.12 0 0.1 0.04 0.14 l0.26 0 l0 -0.34 c-0.28 0.14 -0.3 0.08 -0.3 0.2 z M84.415 19.78 l0 0.1 c0.04 0 0.06 -0.04 0.06 -0.04 c-0.02 -0.12 -0.08 -0.12 -0.08 -0.22 c-0.08 0 -0.12 0.04 -0.12 0.06 c0.02 0.04 0.04 0.1 0.14 0.1 z M94.19500000000001 19.84 c-0.02 0 -0.02 0.02 -0.02 0.04 s0 0.02 0.02 0.02 s0.02 0 0.02 -0.02 s0 -0.04 -0.02 -0.04 z M80.735 19.62 c0 0.16 -0.02 0.2 -0.06 0.22 c0.12 0 0.22 0 0.22 -0.12 s-0.02 -0.1 -0.16 -0.1 z M82.855 19.8 l0 0.04 l0.04 0 z M83.215 19.72 l0.04 0.02 l0 -0.06 z M84.515 19.58 c0 0.02 0 0.06 0.02 0.06 c0 0 0.08 0 0.08 -0.06 c0 -0.04 -0.04 -0.04 -0.08 -0.06 c-0.02 0.02 -0.02 0.04 -0.02 0.06 z M93.655 19.62 c0 0.02 0.04 0.02 0.06 0.02 c0 -0.1 0 -0.1 -0.04 -0.12 c0 0 -0.02 0.06 -0.02 0.1 z M94.535 19.48 c-0.1 0.02 -0.08 0.06 -0.08 0.16 l0.16 -0.1 c0 -0.02 -0.06 -0.04 -0.08 -0.06 z M93.015 19.54 c-0.02 0 -0.04 0.02 -0.04 0.02 c0 0.02 0.02 0.02 0.04 0.02 s0.02 0 0.02 -0.02 c0 0 0 -0.02 -0.02 -0.02 z M82.035 19.48 l0 0.06 l0.04 -0.06 l-0.04 0 z M82.095 19.18 c0 0.02 0.02 0.3 0.2 0.3 c-0.04 -0.02 -0.1 -0.2 -0.1 -0.3 l0.04 -0.12 l-0.04 -0.04 c-0.08 0 -0.1 0.12 -0.1 0.16 z M82.83500000000001 18.24 c-0.06 0.04 -0.14 0.16 -0.14 0.32 c0.02 0.02 0.04 0.02 0.04 0.02 c0.08 0 0.1 -0.12 0.12 -0.18 c0 -0.02 -0.02 -0.18 -0.02 -0.16 z M82.735 17.72 c0 -0.02 -0.02 -0.02 -0.02 -0.02 c-0.02 0 -0.02 0 -0.02 0.02 s0 0.02 0.02 0.02 c0 0 0.02 0 0.02 -0.02 z M83.295 16.28 c-0.02 0 -0.04 0.02 -0.04 0.02 s0.02 0.02 0.04 0.02 l0.02 -0.02 z M88.975 16 c-0.02 0 -0.02 0.02 -0.02 0.04 s0 0.04 0.02 0.04 s0.02 -0.02 0.02 -0.04 s0 -0.04 -0.02 -0.04 z M83.47500000000001 15.84 c-0.02 0 -0.02 0.02 -0.02 0.04 s0 0.04 0.02 0.04 s0.02 -0.02 0.02 -0.04 s0 -0.04 -0.02 -0.04 z M83.47500000000001 15.42 c-0.02 0 -0.02 0.02 -0.02 0.02 c0 0.02 0 0.02 0.02 0.02 s0.02 0 0.02 -0.02 c0 0 0 -0.02 -0.02 -0.02 z M84.395 14.6 c0.06 0.24 0.08 0.26 0.22 0.34 c0.24 0 0.9 -0.04 2.72 -0.04 c0.16 0 0.24 0.06 0.64 0.06 c0.2 0 0.4 -0.06 0.4 -0.28 c0 -0.1 -0.26 -0.48 -0.26 -0.68 l0.02 0 c0 -0.04 -0.22 -0.22 -0.22 -0.44 c0 -0.74 -0.38 -0.66 -0.38 -1.12 c0.02 0.02 0.02 0.04 0.02 0.04 c-0.02 0 -0.38 -0.66 -0.38 -1.04 c0 -0.26 -0.36 -0.64 -0.36 -1.08 l0.02 0 c0 -0.04 -0.22 -0.24 -0.22 -0.48 c-0.18 -0.42 -0.2 -0.38 -0.36 -0.38 c-0.58 1.38 -0.54 1.4 -0.72 1.74 c0 -0.04 -0.02 0.64 -0.28 0.74 l0 -0.04 c-0.02 0 -0.22 1.14 -0.42 1.32 c0 0.26 -0.44 0.6 -0.44 1.34 z M83.995 14.04 c-0.02 0 -0.04 0.02 -0.04 0.04 s0.02 0.04 0.04 0.04 s0.02 -0.02 0.02 -0.04 s0 -0.04 -0.02 -0.04 z M84.455 12.719999999999999 c-0.02 0 -0.04 0.02 -0.04 0.04 c0 0 0.02 0.02 0.04 0.02 l0 -0.06 z M85.295 11.54 l0 0.02 l0.02 0 z M85.215 11.22 c-0.02 0 -0.04 0.02 -0.04 0.04 l0.04 0 l0.02 0 c0 -0.02 0 -0.04 -0.02 -0.04 z M85.295 10.7 c-0.02 0 -0.04 0.02 -0.04 0.02 c0 0.02 0.02 0.04 0.04 0.04 c0 0 0.02 -0.02 0.02 -0.04 z M85.83500000000001 9.34 c0 -0.02 -0.02 -0.02 -0.02 -0.02 c-0.02 0 -0.02 0 -0.02 0.02 s0 0.04 0.02 0.04 c0 0 0.02 -0.02 0.02 -0.04 z M85.895 9.28 l-0.02 0 c0 0.02 0.02 0.02 0.02 0.02 s0.02 0 0.02 -0.02 l-0.02 0 z M88.075 7.880000000000001 c-0.02 0 -0.02 0.02 -0.02 0.04 s0 0.04 0.02 0.04 s0.02 -0.02 0.02 -0.04 s0 -0.04 -0.02 -0.04 z M87.69500000000001 5.1 c0 0 -0.02 0.02 -0.02 0.04 l0.04 0 c0 -0.02 0 -0.04 -0.02 -0.04 z M87.175 5.0600000000000005 c-0.02 0 -0.02 0.02 -0.02 0.04 s0 0.04 0.02 0.04 s0.02 -0.02 0.02 -0.04 s0 -0.04 -0.02 -0.04 z M87.33500000000001 5.0600000000000005 l0.08 0.04 c0.16 0 0.1 0 0.16 -0.04 l-0.06 -0.08 c-0.08 0 -0.12 0.08 -0.18 0.08 z" style="fill: rgb(209, 209, 209); fill-opacity: 0.9;"></path>
  </g>
</svg>